<svg width="131" height="67" viewBox="0 0 131 67" fill="none" xmlns="http://www.w3.org/2000/svg">
<g clip-path="url(#clip0_603_497)">
<path d="M1.07483 65.9182H93.1117L129.925 38.1312H28.6849L1.07483 65.9182Z" fill="y"/>
<path d="M1.07483 65.9183L28.6849 38.1312V1.08173L1.07483 28.8688V65.9183Z" fill="white"/>
<path d="M129.925 1.08173H28.6849V38.1312H129.925V1.08173Z" fill="black"/>
<path d="M129.925 0H28.2414L27.9257 0.317758L0.315642 28.0913L0.00326538 28.4294V67H93.471L131 38.6721V0H129.925ZM128.854 2.16009V37.0494H29.7664V2.16009H128.854ZM27.61 3.68804V37.685L2.14624 63.312V29.315L27.61 3.68804ZM3.66445 64.8399L29.1282 39.2129H126.704L92.7523 64.8399H3.66445Z" fill="black"/>
</g>
<defs>
<clipPath id="clip0_603_497">
<rect width="131" height="67" fill="white"/>
</clipPath>
</defs>
</svg>
