<svg width="80" height="104" viewBox="0 0 80 104" fill="none" xmlns="http://www.w3.org/2000/svg">
<g clip-path="url(#clip0_603_502)">
<path d="M14.1349 1.1983L1.20233 14.1214V102.799H65.8651L78.7976 89.8786H14.1349V1.1983Z" fill="#FDD835"/>
<path d="M52.9325 1.1983H14.1349V89.8786H78.7976V51.118H52.9325V1.1983Z" fill="#66FF63"/>
<path d="M54.1349 49.9315V0.0263977H13.6528L0.00292969 13.6633V104H66.3647L80.0145 90.3634V49.9315H54.1349ZM77.5982 52.3311V88.6777H15.3344V2.39979H51.7331V52.3049L77.5982 52.3311ZM20.7392 91.0772H29.3531L27.9475 92.4815L26.2514 94.1788L18.8224 101.601H10.2084L15.9385 95.8733L17.6374 94.1788L20.7392 91.0772ZM27.9475 95.8733L29.6464 94.1788L32.7482 91.0772H41.3621L39.9565 92.4815L38.2604 94.1788L30.8314 101.601H22.2174L27.9475 95.8733ZM39.9565 95.8733L41.6554 94.1788L44.7572 91.0772H53.3711L51.9655 92.4815L50.2694 94.1788L42.8404 101.601H34.2264L39.9565 95.8733ZM51.9655 95.8733L53.6644 94.1788L56.7662 91.0772H65.3801L63.9774 92.4815L62.2784 94.1788L54.8494 101.601H46.2354L51.9655 95.8733ZM12.9326 83.487L3.92945 92.4815L2.40183 94.0077V85.4019L3.92945 83.8786L5.62843 82.1813L12.9326 74.8841V83.487ZM12.9326 71.4894L3.92945 80.4839L2.40183 82.0101V73.4044L3.92945 71.8782L5.62843 70.1808L12.9326 62.8837V71.4894ZM12.9326 59.4919L3.92945 68.4864L2.40183 70.0126V61.4068L3.92945 59.8807L5.62843 58.1833L12.9326 50.8861V59.4919ZM12.9326 47.4943L3.92945 56.4888L2.40183 58.015V49.4093L3.92945 47.8831L5.62843 46.1858L12.9326 38.8886V47.4943ZM12.9326 35.4968L3.92945 44.4913L2.40183 46.0175V37.4117L3.92945 35.8856L5.62843 34.1882L12.9326 26.891V35.4968ZM12.9326 23.4992L3.92945 32.4938L2.40183 34.0199V25.4142L3.92945 23.888L5.62843 22.1907L12.9326 14.8935V23.4992ZM12.9326 4.09715V11.5017L3.92945 20.4962L2.40183 22.0224V14.6179L12.9326 4.09715ZM2.40183 97.3995L3.92945 95.8733L5.62843 94.1788L12.9326 86.8788V91.0772H17.3441L15.9385 92.4815L14.2337 94.1788L6.81336 101.601H2.40183V97.3995ZM58.2444 101.601L63.9774 95.8733L65.6734 94.1788L68.7752 91.0772H75.8992L65.3685 101.601H58.2444Z" fill="#231B3B"/>
</g>
<defs>
<clipPath id="clip0_603_502">
<rect width="80" height="104" fill="white"/>
</clipPath>
</defs>
</svg>
