<svg width="111" height="104" viewBox="0 0 111 104" fill="none" xmlns="http://www.w3.org/2000/svg">
<g clip-path="url(#clip0_603_260)">
<path d="M38.5214 61.214C38.2832 61.0533 38.0025 60.9665 37.7148 60.9646C37.427 60.9627 37.1452 61.0457 36.9049 61.2032C36.6646 61.3607 36.4766 61.5856 36.3648 61.8494C36.2531 62.1133 36.2224 62.4041 36.2769 62.6853C36.3313 62.9664 36.4683 63.2252 36.6706 63.4288C36.8729 63.6324 37.1313 63.7718 37.4132 63.8292C37.6952 63.8866 37.9879 63.8596 38.2543 63.7515C38.5208 63.6433 38.749 63.459 38.9101 63.2218C39.1259 62.9042 39.2061 62.5143 39.1332 62.1379C39.0603 61.7614 38.8403 61.4292 38.5214 61.214Z" fill="#66FF63"/>
<path d="M39.3863 54.285C39.1483 54.125 38.868 54.0388 38.5808 54.0374C38.2936 54.036 38.0125 54.1193 37.773 54.277C37.5334 54.4346 37.3463 54.6594 37.2353 54.923C37.1242 55.1865 37.0943 55.4768 37.1492 55.7573C37.2042 56.0378 37.3415 56.2957 37.5438 56.4985C37.7462 56.7012 38.0045 56.8397 38.2859 56.8963C38.5674 56.953 38.8595 56.9252 39.1251 56.8167C39.3908 56.7081 39.6181 56.5235 39.7782 56.2863C39.9916 55.9688 40.0702 55.5802 39.9967 55.2053C39.9233 54.8304 39.7039 54.4996 39.3863 54.285Z" fill="#66FF63"/>
<path d="M35.0326 43.0986C34.7945 42.9379 34.5138 42.8511 34.226 42.8492C33.9382 42.8473 33.6564 42.9303 33.4161 43.0878C33.1758 43.2453 32.9879 43.4702 32.8761 43.7341C32.7643 43.9979 32.7337 44.2887 32.7881 44.5699C32.8425 44.851 32.9795 45.1098 33.1818 45.3134C33.3841 45.517 33.6426 45.6564 33.9245 45.7138C34.2064 45.7713 34.4991 45.7442 34.7655 45.6361C35.032 45.528 35.2602 45.3436 35.4213 45.1064C35.6371 44.7888 35.7173 44.3989 35.6445 44.0225C35.5716 43.6461 35.3515 43.3138 35.0326 43.0986Z" fill="#66FF63"/>
<path d="M40.7208 47.1529C40.4824 46.9926 40.2016 46.9064 39.9139 46.905C39.6261 46.9035 39.3445 46.9871 39.1045 47.145C38.8645 47.3029 38.6769 47.528 38.5656 47.792C38.4542 48.056 38.4241 48.3469 38.479 48.6279C38.5338 48.9089 38.6712 49.1674 38.8738 49.3707C39.0763 49.574 39.3349 49.713 39.6169 49.77C39.8989 49.827 40.1915 49.7996 40.4578 49.6911C40.724 49.5827 40.952 49.3981 41.1128 49.1607C41.3282 48.8427 41.4079 48.4526 41.3345 48.0761C41.261 47.6996 41.0403 47.3676 40.7208 47.1529Z" fill="#66FF63"/>
<path d="M46.3831 51.3039C46.1449 51.1432 45.8642 51.0564 45.5765 51.0544C45.2887 51.0525 45.0069 51.1356 44.7666 51.2931C44.5263 51.4506 44.3383 51.6755 44.2265 51.9393C44.1148 52.2031 44.0841 52.494 44.1386 52.7751C44.193 53.0563 44.33 53.315 44.5323 53.5187C44.7346 53.7223 44.993 53.8616 45.2749 53.9191C45.5569 53.9765 45.8496 53.9495 46.116 53.8413C46.3825 53.7332 46.6107 53.5489 46.7718 53.3117C46.9867 52.9938 47.0664 52.6042 46.9936 52.228C46.9208 51.8518 46.7013 51.5196 46.3831 51.3039Z" fill="#66FF63"/>
<path d="M47.682 44.0558C47.4439 43.8951 47.1632 43.8083 46.8754 43.8064C46.5877 43.8045 46.3058 43.8875 46.0655 44.045C45.8252 44.2025 45.6373 44.4274 45.5255 44.6912C45.4137 44.9551 45.3831 45.2459 45.4375 45.5271C45.4919 45.8082 45.629 46.067 45.8312 46.2706C46.0335 46.4742 46.292 46.6136 46.5739 46.671C46.8558 46.7284 47.1485 46.7014 47.415 46.5933C47.6814 46.4851 47.9096 46.3008 48.0708 46.0636C48.2865 45.746 48.3667 45.3561 48.2939 44.9797C48.221 44.6032 48.0009 44.271 47.682 44.0558Z" fill="#66FF63"/>
<path d="M42.0716 39.9338C41.8334 39.7731 41.5527 39.6863 41.2649 39.6844C40.9772 39.6825 40.6953 39.7655 40.455 39.923C40.2147 40.0806 40.0268 40.3054 39.915 40.5693C39.8032 40.8331 39.7726 41.124 39.827 41.4051C39.8815 41.6862 40.0185 41.945 40.2208 42.1486C40.4231 42.3522 40.6815 42.4916 40.9634 42.549C41.2453 42.6065 41.538 42.5794 41.8045 42.4713C42.0709 42.3632 42.2992 42.1788 42.4603 41.9416C42.6752 41.6237 42.7549 41.2341 42.6821 40.858C42.6093 40.4818 42.3898 40.1495 42.0716 39.9338Z" fill="#66FF63"/>
<path d="M34.6246 38.2386C34.863 38.3988 35.1438 38.4851 35.4316 38.4865C35.7193 38.4879 36.001 38.4044 36.241 38.2465C36.481 38.0886 36.6685 37.8634 36.7798 37.5995C36.8912 37.3355 36.9213 37.0446 36.8665 36.7636C36.8116 36.4826 36.6742 36.2241 36.4717 36.0208C36.2691 35.8175 36.0105 35.6785 35.7285 35.6215C35.4466 35.5644 35.1539 35.5919 34.8877 35.7004C34.6214 35.8088 34.3934 35.9934 34.2326 36.2308C34.1255 36.3881 34.0507 36.565 34.0125 36.7511C33.9742 36.9373 33.9732 37.1291 34.0097 37.3157C34.0461 37.5022 34.1191 37.6797 34.2247 37.8381C34.3302 37.9965 34.4661 38.1326 34.6246 38.2386Z" fill="#66FF63"/>
<path d="M43.4062 32.805C43.168 32.6443 42.8873 32.5575 42.5995 32.5555C42.3118 32.5536 42.0299 32.6367 41.7896 32.7942C41.5493 32.9517 41.3614 33.1766 41.2496 33.4404C41.1378 33.7042 41.1072 33.9951 41.1616 34.2762C41.2161 34.5574 41.3531 34.8161 41.5554 35.0198C41.7576 35.2234 42.0161 35.3627 42.298 35.4202C42.5799 35.4776 42.8726 35.4506 43.1391 35.3424C43.4055 35.2343 43.6338 35.05 43.7949 34.8128C44.0106 34.4951 44.0909 34.1053 44.018 33.7289C43.9451 33.3524 43.7251 33.0201 43.4062 32.805Z" fill="#66FF63"/>
<path d="M49.1138 36.8303C48.8757 36.6696 48.5949 36.5828 48.3072 36.5808C48.0194 36.5789 47.7376 36.662 47.4973 36.8195C47.257 36.977 47.069 37.2019 46.9572 37.4657C46.8455 37.7295 46.8148 38.0204 46.8693 38.3015C46.9237 38.5827 47.0607 38.8414 47.263 39.0451C47.4653 39.2487 47.7237 39.388 48.0057 39.4455C48.2876 39.5029 48.5803 39.4759 48.8467 39.3677C49.1132 39.2596 49.3414 39.0753 49.5025 38.8381C49.7183 38.5204 49.7985 38.1306 49.7256 37.7542C49.6528 37.3777 49.4327 37.0454 49.1138 36.8303Z" fill="#66FF63"/>
<path d="M60.0171 45.5479C59.739 45.3732 59.408 45.301 59.0819 45.344C58.7558 45.387 58.4551 45.5424 58.2323 45.7832L60.8788 40.8652C61.0657 40.8299 61.2438 40.7582 61.4027 40.6542C61.5617 40.5502 61.6985 40.416 61.8052 40.2593C61.9266 40.0688 61.9985 39.8512 62.0143 39.6262C62.0301 39.4011 61.9894 39.1757 61.8959 38.9702L70.0297 23.8584C70.2867 23.8867 70.5463 23.8379 70.7752 23.7182C71.004 23.5985 71.1917 23.4134 71.3139 23.1868C71.4362 22.9601 71.4875 22.7022 71.4613 22.4463C71.435 22.1904 71.3325 21.9482 71.1667 21.7507L74.0237 16.4428C74.247 16.0252 74.3564 15.5567 74.341 15.084C74.3257 14.6113 74.1861 14.1509 73.9363 13.7485C73.6983 13.3352 73.3482 12.9969 72.926 12.7723C72.5038 12.5477 72.0266 12.446 71.5489 12.4787L59.8066 12.8493L57.8857 12.9106L2.62056 14.6702C2.14543 14.6848 1.68256 14.8238 1.27858 15.073C0.874601 15.3223 0.543785 15.6731 0.319456 16.09C0.095128 16.507 -0.0147886 16.9754 0.00077992 17.4481C0.0163485 17.9208 0.156852 18.3811 0.408136 18.7825L18.4379 47.6943L19.3352 49.1317L36.7722 77.0896C37.0151 77.4788 37.3538 77.8 37.7562 78.0227C38.1586 78.2455 38.6115 78.3624 39.072 78.3626H39.1595C39.6342 78.3479 40.0967 78.2092 40.5005 77.9602C40.9042 77.7113 41.2349 77.361 41.4594 76.9445L51.5853 58.1362C51.7854 58.1141 51.9783 58.0494 52.1511 57.9466C52.3238 57.8437 52.4722 57.705 52.5863 57.54C52.7123 57.3387 52.7829 57.1079 52.7909 56.8709C52.7988 56.6338 52.7439 56.3989 52.6316 56.1897L57.9051 46.3955C57.8089 46.6717 57.8041 46.9712 57.8915 47.2502C57.979 47.5292 58.1541 47.773 58.391 47.9457C58.5488 48.0586 58.7278 48.1387 58.9174 48.1815C59.1069 48.2242 59.3032 48.2286 59.4944 48.1945C59.6857 48.1603 59.8682 48.0883 60.031 47.9826C60.1937 47.877 60.3335 47.7399 60.442 47.5794C60.5505 47.419 60.6255 47.2386 60.6626 47.0487C60.6997 46.8589 60.698 46.6636 60.6578 46.4745C60.6176 46.2853 60.5396 46.1061 60.4284 45.9475C60.3172 45.7889 60.1752 45.6541 60.0107 45.5512L60.0171 45.5479ZM54.5816 41.1005C54.4239 40.9809 54.2433 40.8946 54.0509 40.847C53.8584 40.7993 53.6582 40.7914 53.4626 40.8236C53.267 40.8557 53.08 40.9274 52.9132 41.0341C52.7464 41.1408 52.6033 41.2803 52.4927 41.4441C52.3821 41.6078 52.3063 41.7924 52.27 41.9863C52.2337 42.1803 52.2376 42.3796 52.2816 42.572C52.3255 42.7644 52.4086 42.9458 52.5256 43.1051C52.6426 43.2644 52.7911 43.3982 52.962 43.4982C53.0624 43.5659 53.1823 43.524 53.2859 43.5659L45.3109 58.3747C45.0044 58.2062 44.6462 58.1561 44.3049 58.234C43.9636 58.3119 43.6632 58.5123 43.4612 58.7969C43.2453 59.115 43.165 59.5054 43.2379 59.8824C43.3107 60.2593 43.5308 60.5922 43.85 60.8079C43.8921 60.8337 43.9439 60.8079 43.9892 60.8337L38.9036 70.283L32.0266 59.2578L30.6078 56.9857L22.8336 44.5005L21.4148 42.2446L16.3972 34.1875L15.0496 32.0283L7.47946 19.9073L43.3252 18.7729C43.1416 19.0737 43.0802 19.433 43.1537 19.7773C43.2271 20.1217 43.4298 20.4252 43.7204 20.626C44.0309 20.8334 44.4112 20.9102 44.7784 20.8396C45.1456 20.7689 45.4698 20.5566 45.6801 20.2489C45.8261 20.0116 45.8937 19.7348 45.8733 19.4573C45.853 19.1798 45.7458 18.9157 45.5668 18.702L57.6006 18.3184C57.2522 18.3181 56.9151 18.4423 56.6509 18.6683C56.3867 18.8944 56.2128 19.2074 56.161 19.5502C56.1092 19.8931 56.1828 20.2431 56.3685 20.5365C56.5541 20.8299 56.8395 21.0472 57.1727 21.1489C57.5059 21.2506 57.8646 21.2299 58.1838 21.0905C58.5029 20.9512 58.7611 20.7025 58.9114 20.3897C59.0617 20.0769 59.0942 19.7208 59.0028 19.3862C58.9115 19.0516 58.7024 18.7608 58.4137 18.5666C58.1735 18.4053 57.8904 18.3189 57.6006 18.3184L64.0533 18.1154C64.369 18.2296 64.7167 18.2192 65.025 18.0864L67.0431 18.0219L64.1278 23.4653C64.0857 23.4298 64.0889 23.3718 64.0435 23.3396C63.8859 23.22 63.7052 23.1337 63.5128 23.0861C63.3203 23.0384 63.1202 23.0305 62.9245 23.0627C62.7289 23.0948 62.5419 23.1665 62.3751 23.2732C62.2083 23.3799 62.0652 23.5194 61.9546 23.6832C61.844 23.8469 61.7682 24.0315 61.7319 24.2254C61.6956 24.4194 61.6995 24.6187 61.7435 24.8111C61.7874 25.0035 61.8705 25.1849 61.9875 25.3442C62.1045 25.5035 62.253 25.6373 62.4239 25.7373C62.5567 25.8276 62.7122 25.7857 62.8612 25.8276L54.5946 41.1391C54.5946 41.1391 54.5881 41.1069 54.5816 41.1005Z" fill="#66FF63"/>
<path d="M58.8251 52.7831C58.587 52.6224 58.3062 52.5356 58.0185 52.5337C57.7307 52.5318 57.4489 52.6149 57.2086 52.7724C56.9683 52.9299 56.7803 53.1548 56.6686 53.4186C56.5568 53.6824 56.5261 53.9733 56.5806 54.2544C56.635 54.5356 56.772 54.7943 56.9743 54.9979C57.1766 55.2016 57.435 55.3409 57.717 55.3983C57.9989 55.4558 58.2916 55.4287 58.558 55.3206C58.8245 55.2125 59.0527 55.0282 59.2138 54.7909C59.4296 54.4733 59.5098 54.0835 59.4369 53.707C59.3641 53.3306 59.144 52.9983 58.8251 52.7831Z" fill="#66FF63"/>
<path d="M51.4234 62.6224C51.1854 62.4632 50.9053 62.3777 50.6185 62.3768C50.3317 62.3759 50.051 62.4595 49.812 62.6172C49.5729 62.7748 49.3862 62.9994 49.2753 63.2626C49.1645 63.5258 49.1345 63.8157 49.1892 64.0959C49.2439 64.376 49.3808 64.6337 49.5826 64.8365C49.7844 65.0392 50.042 65.178 50.323 65.2351C50.604 65.2923 50.8958 65.2653 51.1614 65.1577C51.427 65.05 51.6546 64.8664 51.8154 64.6302C52.0308 64.3121 52.1105 63.922 52.037 63.5456C51.9635 63.1691 51.7428 62.837 51.4234 62.6224Z" fill="#66FF63"/>
<path d="M50.8241 69.5868C50.586 69.4276 50.3059 69.3422 50.0191 69.3413C49.7323 69.3403 49.4517 69.424 49.2126 69.5816C48.9736 69.7393 48.7868 69.9639 48.676 70.2271C48.5651 70.4903 48.5352 70.7802 48.5899 71.0603C48.6445 71.3405 48.7814 71.5982 48.9832 71.8009C49.185 72.0037 49.4427 72.1424 49.7237 72.1996C50.0047 72.2568 50.2964 72.2298 50.562 72.1222C50.8276 72.0145 51.0552 71.8309 51.216 71.5947C51.4314 71.2766 51.5112 70.8865 51.4377 70.51C51.3642 70.1336 51.1435 69.8015 50.8241 69.5868Z" fill="#66FF63"/>
<path d="M57.2574 67.0151C57.0192 66.8544 56.7385 66.7676 56.4507 66.7657C56.163 66.7637 55.8811 66.8468 55.6408 67.0043C55.4005 67.1618 55.2126 67.3867 55.1008 67.6505C54.989 67.9144 54.9584 68.2052 55.0128 68.4864C55.0673 68.7675 55.2043 69.0262 55.4066 69.2299C55.6088 69.4335 55.8673 69.5729 56.1492 69.6303C56.4311 69.6877 56.7238 69.6607 56.9903 69.5526C57.2567 69.4444 57.485 69.2601 57.6461 69.0229C57.8618 68.7052 57.9421 68.3154 57.8692 67.939C57.7963 67.5625 57.5763 67.2302 57.2574 67.0151Z" fill="#66FF63"/>
<path d="M63.6679 64.5271C63.4296 64.3668 63.149 64.2803 62.8615 64.2787C62.5739 64.277 62.2923 64.3602 62.0522 64.5177C61.8122 64.6752 61.6244 64.9 61.5127 65.1637C61.4011 65.4273 61.3704 65.718 61.4247 65.9989C61.479 66.2799 61.6158 66.5385 61.8179 66.7422C62.0199 66.9458 62.278 67.0853 62.5597 67.143C62.8413 67.2007 63.1339 67.174 63.4003 67.0663C63.6667 66.9587 63.8951 66.7748 64.0566 66.5381C64.1639 66.3807 64.239 66.2038 64.2775 66.0175C64.3161 65.8312 64.3174 65.6392 64.2813 65.4524C64.2452 65.2656 64.1724 65.0878 64.0671 64.929C63.9619 64.7702 63.8262 64.6336 63.6679 64.5271Z" fill="#66FF63"/>
<path d="M70.1075 62.1518C69.8693 61.9912 69.5886 61.9044 69.3008 61.9024C69.0131 61.9005 68.7312 61.9836 68.4909 62.1411C68.2506 62.2986 68.0627 62.5235 67.9509 62.7873C67.8391 63.0511 67.8085 63.342 67.8629 63.6231C67.9174 63.9043 68.0544 64.163 68.2567 64.3666C68.4589 64.5703 68.7174 64.7096 68.9993 64.7671C69.2812 64.8245 69.5739 64.7974 69.8404 64.6893C70.1068 64.5812 70.3351 64.3969 70.4962 64.1597C70.6034 64.0025 70.6785 63.8259 70.717 63.6398C70.7555 63.4538 70.7567 63.262 70.7206 63.0755C70.6845 62.889 70.6117 62.7114 70.5065 62.5529C70.4013 62.3944 70.2657 62.2581 70.1075 62.1518Z" fill="#66FF63"/>
<path d="M76.2329 69.0422C76.3929 68.8054 76.4788 68.5267 76.4798 68.2414C76.4807 67.956 76.3966 67.6768 76.2382 67.4389C76.0797 67.2011 75.8539 67.0153 75.5894 66.905C75.3249 66.7947 75.0335 66.7649 74.7519 66.8193C74.4704 66.8737 74.2113 67.0099 74.0075 67.2107C73.8037 67.4115 73.6643 67.6678 73.6068 67.9474C73.5494 68.227 73.5764 68.5172 73.6847 68.7815C73.7929 69.0457 73.9774 69.2721 74.2149 69.4322C74.5345 69.6465 74.9266 69.7258 75.305 69.6527C75.6834 69.5796 76.0172 69.36 76.2329 69.0422Z" fill="#66FF63"/>
<path d="M67.7784 71.6301C68.0168 71.7904 68.2977 71.8767 68.5854 71.8781C68.8731 71.8795 69.1548 71.796 69.3948 71.6381C69.6348 71.4802 69.8223 71.255 69.9336 70.991C70.045 70.7271 70.0751 70.4362 70.0203 70.1552C69.9654 69.8741 69.828 69.6156 69.6255 69.4123C69.4229 69.209 69.1643 69.0701 68.8823 69.013C68.6004 68.956 68.3078 68.9834 68.0415 69.0919C67.7752 69.2004 67.5472 69.385 67.3864 69.6223C67.2794 69.7797 67.2045 69.9565 67.1663 70.1427C67.128 70.3288 67.127 70.5207 67.1635 70.7072C67.1999 70.8937 67.2729 71.0713 67.3785 71.2296C67.484 71.388 67.6199 71.5241 67.7784 71.6301Z" fill="#66FF63"/>
<path d="M63.1041 71.643C62.8657 71.4828 62.5849 71.3965 62.2972 71.3951C62.0094 71.3937 61.7278 71.4772 61.4878 71.6351C61.2478 71.793 61.0602 72.0182 60.9489 72.2821C60.8375 72.5461 60.8074 72.837 60.8623 73.118C60.9171 73.399 61.0545 73.6575 61.2571 73.8608C61.4596 74.0641 61.7182 74.2031 62.0002 74.2601C62.2822 74.3172 62.5748 74.2897 62.8411 74.1813C63.1073 74.0728 63.3353 73.8882 63.4961 73.6508C63.6032 73.4935 63.678 73.3167 63.7163 73.1305C63.7545 72.9443 63.7555 72.7525 63.7191 72.566C63.6827 72.3794 63.6096 72.2019 63.5041 72.0435C63.3986 71.8851 63.2626 71.749 63.1041 71.643Z" fill="#66FF63"/>
<path d="M56.6871 74.044C56.4487 73.8837 56.1679 73.7974 55.8802 73.796C55.5924 73.7946 55.3108 73.8782 55.0708 74.0361C54.8308 74.194 54.6432 74.4191 54.5319 74.6831C54.4206 74.9471 54.3904 75.2379 54.4453 75.519C54.5001 75.8 54.6375 76.0585 54.8401 76.2618C55.0426 76.4651 55.3013 76.604 55.5832 76.6611C55.8652 76.7181 56.1578 76.6907 56.4241 76.5822C56.6903 76.4738 56.9183 76.2892 57.0791 76.0518C57.2945 75.7338 57.3743 75.3437 57.3008 74.9672C57.2273 74.5907 57.0066 74.2586 56.6871 74.044Z" fill="#66FF63"/>
<path d="M62.9228 78.7977C62.6846 78.637 62.4039 78.5502 62.1161 78.5483C61.8284 78.5463 61.5465 78.6294 61.3062 78.7869C61.0659 78.9444 60.878 79.1693 60.7662 79.4331C60.6544 79.6969 60.6238 79.9878 60.6782 80.269C60.7327 80.5501 60.8697 80.8088 61.072 81.0125C61.2742 81.2161 61.5327 81.3554 61.8146 81.4129C62.0965 81.4703 62.3892 81.4433 62.6557 81.3351C62.9221 81.227 63.1504 81.0427 63.3115 80.8055C63.4187 80.6483 63.4938 80.4717 63.5323 80.2856C63.5708 80.0996 63.572 79.9078 63.5359 79.7213C63.4998 79.5348 63.427 79.3572 63.3218 79.1987C63.2166 79.0402 63.081 78.9039 62.9228 78.7977Z" fill="#66FF63"/>
<path d="M69.3948 78.3755C69.5564 78.1385 69.6436 77.8592 69.6455 77.5729C69.6474 77.2866 69.564 77.0062 69.4057 76.7671C69.2473 76.5281 69.0213 76.3411 68.7561 76.2299C68.491 76.1186 68.1986 76.0882 67.916 76.1423C67.6335 76.1965 67.3734 76.3328 67.1687 76.5341C66.9641 76.7353 66.824 76.9925 66.7663 77.2729C66.7085 77.5534 66.7357 77.8446 66.8444 78.1097C66.9531 78.3748 67.1383 78.6019 67.3768 78.7622C67.6963 78.976 68.0879 79.0553 68.466 78.9829C68.8441 78.9104 69.178 78.6921 69.3948 78.3755Z" fill="#66FF63"/>
<path d="M69.9293 83.4675C69.6909 83.3072 69.4101 83.221 69.1224 83.2196C68.8346 83.2182 68.553 83.3017 68.313 83.4596C68.073 83.6175 67.8854 83.8426 67.7741 84.1066C67.6627 84.3706 67.6326 84.6615 67.6874 84.9425C67.7423 85.2235 67.8797 85.482 68.0823 85.6853C68.2848 85.8886 68.5434 86.0276 68.8254 86.0846C69.1073 86.1416 69.4 86.1142 69.6662 86.0057C69.9325 85.8973 70.1605 85.7127 70.3213 85.4753C70.5359 85.157 70.6151 84.7672 70.5416 84.3909C70.4682 84.0147 70.2481 83.6827 69.9293 83.4675Z" fill="#66FF63"/>
<path d="M75.4749 82.7746C75.6364 82.5376 75.7237 82.2583 75.7256 81.972C75.7275 81.6857 75.6441 81.4053 75.4857 81.1662C75.3274 80.9272 75.1014 80.7402 74.8362 80.629C74.571 80.5178 74.2787 80.4873 73.9961 80.5414C73.7135 80.5956 73.4535 80.7319 73.2488 80.9332C73.0441 81.1344 72.9041 81.3916 72.8463 81.672C72.7886 81.9525 72.8158 82.2437 72.9245 82.5088C73.0332 82.7739 73.2184 83.001 73.4569 83.1613C73.7761 83.376 74.1679 83.4558 74.5463 83.3833C74.9247 83.3108 75.2586 83.0919 75.4749 82.7746Z" fill="#66FF63"/>
<path d="M91.3247 97.1032C91.0866 96.9425 90.8059 96.8557 90.5181 96.8538C90.2304 96.8519 89.9485 96.9349 89.7082 97.0924C89.4679 97.25 89.28 97.4749 89.1682 97.7387C89.0564 98.0025 89.0258 98.2934 89.0802 98.5745C89.1346 98.8556 89.2717 99.1144 89.4739 99.318C89.6762 99.5216 89.9347 99.661 90.2166 99.7184C90.4985 99.7759 90.7912 99.7488 91.0577 99.6407C91.3241 99.5326 91.5523 99.3482 91.7135 99.111C91.9292 98.7934 92.0094 98.4035 91.9366 98.0271C91.8637 97.6507 91.6436 97.3184 91.3247 97.1032Z" fill="#66FF63"/>
<path d="M98.0008 101.357C97.7626 101.197 97.4819 101.11 97.1941 101.108C96.9064 101.106 96.6245 101.189 96.3842 101.347C96.1439 101.504 95.956 101.729 95.8442 101.993C95.7324 102.257 95.7018 102.547 95.7562 102.829C95.8107 103.11 95.9477 103.368 96.15 103.572C96.3523 103.776 96.6107 103.915 96.8926 103.973C97.1745 104.03 97.4672 104.003 97.7337 103.895C98.0001 103.787 98.2284 103.602 98.3895 103.365C98.4967 103.208 98.5718 103.031 98.6103 102.845C98.6488 102.659 98.65 102.467 98.6139 102.281C98.5778 102.094 98.5051 101.917 98.3998 101.758C98.2946 101.6 98.159 101.464 98.0008 101.357Z" fill="#66FF63"/>
<path d="M103.935 97.071C103.7 96.912 103.423 96.8259 103.139 96.8237C102.855 96.8214 102.577 96.9031 102.34 97.0583C102.102 97.2136 101.917 97.4354 101.806 97.6958C101.695 97.9561 101.665 98.2432 101.719 98.5208C101.772 98.7983 101.907 99.0538 102.107 99.2548C102.307 99.4558 102.562 99.5934 102.84 99.65C103.119 99.7067 103.407 99.6799 103.67 99.573C103.933 99.4662 104.159 99.2841 104.317 99.0498C104.53 98.7367 104.609 98.3527 104.537 97.9819C104.465 97.611 104.249 97.2835 103.935 97.071Z" fill="#66FF63"/>
<path d="M98.8592 81.4242C98.621 81.2636 98.3403 81.1768 98.0525 81.1748C97.7648 81.1729 97.4829 81.256 97.2426 81.4135C97.0023 81.571 96.8144 81.7959 96.7026 82.0597C96.5908 82.3235 96.5602 82.6144 96.6146 82.8955C96.6691 83.1767 96.8061 83.4354 97.0084 83.639C97.2107 83.8427 97.4691 83.982 97.751 84.0395C98.0329 84.0969 98.3256 84.0698 98.5921 83.9617C98.8585 83.8536 99.0868 83.6693 99.2479 83.4321C99.4636 83.1144 99.5439 82.7246 99.471 82.3482C99.3981 81.9717 99.1781 81.6394 98.8592 81.4242Z" fill="#66FF63"/>
<path d="M105.276 80.4574C105.039 80.2976 104.759 80.2114 104.473 80.2097C104.186 80.208 103.906 80.2909 103.667 80.4479C103.428 80.6049 103.241 80.829 103.13 81.0917C103.019 81.3545 102.988 81.6441 103.043 81.924C103.097 82.2038 103.234 82.4613 103.435 82.6639C103.637 82.8664 103.894 83.0049 104.175 83.0618C104.456 83.1187 104.747 83.0915 105.013 82.9836C105.278 82.8757 105.505 82.6919 105.665 82.4556C105.879 82.1392 105.959 81.7511 105.886 81.3765C105.813 81.0019 105.594 80.6714 105.276 80.4574Z" fill="#66FF63"/>
<path d="M106.336 72.1973C106.103 72.0406 105.829 71.956 105.549 71.9542C105.268 71.9524 104.993 72.0334 104.759 72.187C104.524 72.3407 104.341 72.56 104.232 72.8173C104.123 73.0746 104.093 73.3583 104.146 73.6325C104.199 73.9067 104.333 74.1591 104.53 74.3578C104.727 74.5564 104.979 74.6924 105.254 74.7485C105.529 74.8047 105.815 74.7784 106.075 74.6731C106.335 74.5677 106.557 74.3881 106.714 74.1568C106.924 73.8466 107.002 73.4664 106.931 73.0993C106.86 72.7321 106.646 72.4078 106.336 72.1973Z" fill="#66FF63"/>
<path d="M100.116 74.4565C99.8779 74.2958 99.5971 74.209 99.3094 74.2071C99.0216 74.2052 98.7398 74.2883 98.4995 74.4458C98.2592 74.6033 98.0712 74.8282 97.9594 75.092C97.8477 75.3558 97.817 75.6467 97.8715 75.9278C97.9259 76.209 98.0629 76.4677 98.2652 76.6713C98.4675 76.875 98.7259 77.0143 99.0079 77.0718C99.2898 77.1292 99.5825 77.1021 99.8489 76.994C100.115 76.8859 100.344 76.7016 100.505 76.4643C100.612 76.3072 100.687 76.1305 100.726 75.9445C100.764 75.7585 100.765 75.5667 100.729 75.3802C100.693 75.1937 100.62 75.0161 100.515 74.8576C100.41 74.6991 100.274 74.5628 100.116 74.4565Z" fill="#66FF63"/>
<path d="M90.0905 85.4559C90.3805 85.6348 90.7252 85.7046 91.0623 85.6525H91.1886C91.5143 85.5824 91.8056 85.4024 92.0132 85.1431C92.2208 84.8838 92.3319 84.561 92.3277 84.2295C92.3235 83.898 92.2042 83.5781 91.9901 83.3241C91.776 83.0701 91.4802 82.8975 91.1528 82.8356C90.8255 82.7737 90.4867 82.8263 90.1938 82.9844C89.901 83.1426 89.6721 83.3966 89.5459 83.7035C89.4197 84.0103 89.4041 84.3511 89.5016 84.6682C89.599 84.9852 89.8037 85.2589 90.0808 85.443L90.0905 85.4559Z" fill="#66FF63"/>
<path d="M93.5111 76.1099C93.273 75.9492 92.9923 75.8624 92.7045 75.8604C92.4168 75.8585 92.1349 75.9416 91.8946 76.0991C91.6543 76.2566 91.4664 76.4815 91.3546 76.7453C91.2428 77.0091 91.2122 77.3 91.2666 77.5811C91.321 77.8623 91.4581 78.121 91.6603 78.3247C91.8626 78.5283 92.1211 78.6676 92.403 78.7251C92.6849 78.7825 92.9776 78.7555 93.2441 78.6473C93.5105 78.5392 93.7387 78.3549 93.8999 78.1177C94.1156 77.8 94.1958 77.4102 94.123 77.0338C94.0501 76.6573 93.83 76.325 93.5111 76.1099Z" fill="#66FF63"/>
<path d="M87.9008 70.6891C87.6626 70.5284 87.3819 70.4416 87.0942 70.4397C86.8064 70.4378 86.5246 70.5208 86.2843 70.6783C86.044 70.8358 85.856 71.0607 85.7442 71.3245C85.6324 71.5884 85.6018 71.8792 85.6563 72.1604C85.7107 72.4415 85.8477 72.7002 86.05 72.9039C86.2523 73.1075 86.5107 73.2469 86.7926 73.3043C87.0746 73.3617 87.3673 73.3347 87.6337 73.2266C87.9002 73.1184 88.1284 72.9341 88.2895 72.6969C88.3968 72.5398 88.4718 72.3631 88.5103 72.1771C88.5488 71.991 88.55 71.7992 88.5139 71.6127C88.4778 71.4262 88.4051 71.2486 88.2999 71.0901C88.1947 70.9316 88.059 70.7953 87.9008 70.6891Z" fill="#66FF63"/>
<path d="M86.9808 77.7792C86.7427 77.6181 86.4619 77.531 86.1739 77.5288C85.886 77.5266 85.6038 77.6096 85.3633 77.7671C85.1228 77.9246 84.9347 78.1496 84.8228 78.4135C84.7109 78.6775 84.6803 78.9686 84.7348 79.2499C84.7894 79.5312 84.9266 79.7901 85.1292 79.9937C85.3317 80.1973 85.5905 80.3365 85.8727 80.3937C86.1548 80.4509 86.4477 80.4235 86.7142 80.3149C86.9806 80.2063 87.2087 80.0215 87.3695 79.7838C87.5842 79.4664 87.6639 79.0773 87.591 78.7017C87.5182 78.326 87.2988 77.9943 86.9808 77.7792Z" fill="#66FF63"/>
<path d="M80.891 79.6839C80.6529 79.5232 80.3722 79.4364 80.0844 79.4345C79.7966 79.4326 79.5148 79.5156 79.2745 79.6731C79.0342 79.8306 78.8463 80.0555 78.7345 80.3194C78.6227 80.5832 78.5921 80.8741 78.6465 81.1552C78.7009 81.4363 78.8379 81.6951 79.0402 81.8987C79.2425 82.1023 79.501 82.2417 79.7829 82.2991C80.0648 82.3565 80.3575 82.3295 80.6239 82.2214C80.8904 82.1132 81.1186 81.9289 81.2798 81.6917C81.4946 81.3738 81.5744 80.9842 81.5015 80.608C81.4287 80.2319 81.2092 79.8996 80.891 79.6839Z" fill="#66FF63"/>
<path d="M73.2074 74.3341C73.0474 74.5709 72.9615 74.8496 72.9606 75.1349C72.9596 75.4203 73.0437 75.6995 73.2022 75.9373C73.3607 76.1752 73.5864 76.361 73.8509 76.4712C74.1155 76.5815 74.4069 76.6113 74.6884 76.5569C74.97 76.5025 75.229 76.3663 75.4328 76.1656C75.6366 75.9648 75.7761 75.7084 75.8335 75.4289C75.891 75.1493 75.8639 74.8591 75.7557 74.5948C75.6475 74.3305 75.463 74.1041 75.2255 73.9441C74.9058 73.7298 74.5137 73.6505 74.1353 73.7236C73.7569 73.7967 73.4232 74.0163 73.2074 74.3341Z" fill="#66FF63"/>
<path d="M81.5324 72.4648C81.2942 72.3041 81.0135 72.2173 80.7258 72.2154C80.438 72.2135 80.1561 72.2966 79.9158 72.4541C79.6755 72.6116 79.4876 72.8365 79.3758 73.1003C79.264 73.3641 79.2334 73.655 79.2878 73.9361C79.3423 74.2173 79.4793 74.476 79.6816 74.6796C79.8839 74.8833 80.1423 75.0226 80.4242 75.08C80.7061 75.1375 80.9988 75.1104 81.2653 75.0023C81.5317 74.8942 81.76 74.7099 81.9211 74.4726C82.1368 74.155 82.2171 73.7652 82.1442 73.3887C82.0713 73.0123 81.8513 72.68 81.5324 72.4648Z" fill="#66FF63"/>
<path d="M80.5995 67.7692C80.8376 67.9284 81.1177 68.0138 81.4045 68.0148C81.6913 68.0157 81.9719 67.932 82.211 67.7744C82.45 67.6167 82.6368 67.3921 82.7476 67.1289C82.8585 66.8657 82.8884 66.5758 82.8337 66.2957C82.7791 66.0156 82.6422 65.7578 82.4404 65.5551C82.2386 65.3523 81.9809 65.2136 81.6999 65.1564C81.4189 65.0992 81.1272 65.1262 80.8616 65.2339C80.596 65.3415 80.3684 65.5251 80.2076 65.7614C79.9921 66.0794 79.9124 66.4695 79.9859 66.846C80.0594 67.2225 80.2801 67.5545 80.5995 67.7692Z" fill="#66FF63"/>
<path d="M88.5616 63.6568C88.3236 63.4976 88.0435 63.4122 87.7567 63.4113C87.4699 63.4103 87.1892 63.494 86.9502 63.6517C86.7111 63.8093 86.5244 64.0339 86.4135 64.2971C86.3027 64.5603 86.2727 64.8502 86.3274 65.1304C86.3821 65.4105 86.519 65.6682 86.7208 65.8709C86.9226 66.0737 87.1802 66.2124 87.4612 66.2696C87.7422 66.3268 88.0339 66.2998 88.2996 66.1922C88.5652 66.0845 88.7927 65.9009 88.9536 65.6647C89.169 65.3466 89.2487 64.9565 89.1752 64.5801C89.1017 64.2036 88.881 63.8715 88.5616 63.6568Z" fill="#66FF63"/>
<path d="M94.8361 61.9649C94.5976 61.8047 94.3168 61.7184 94.0291 61.717C93.7414 61.7156 93.4597 61.7991 93.2197 61.957C92.9797 62.1149 92.7922 62.3401 92.6808 62.6041C92.5695 62.868 92.5393 63.1589 92.5942 63.4399C92.649 63.7209 92.7864 63.9794 92.989 64.1827C93.1916 64.386 93.4502 64.525 93.7321 64.582C94.0141 64.6391 94.3067 64.6116 94.573 64.5032C94.8393 64.3947 95.0672 64.2101 95.228 63.9727C95.3351 63.8154 95.4099 63.6386 95.4482 63.4524C95.4865 63.2663 95.4874 63.0744 95.451 62.8879C95.4146 62.7013 95.3415 62.5238 95.236 62.3654C95.1305 62.207 94.9946 62.0709 94.8361 61.9649Z" fill="#66FF63"/>
<path d="M94.2853 69.1131C94.0472 68.9524 93.7664 68.8656 93.4787 68.8637C93.1909 68.8618 92.9091 68.9448 92.6688 69.1023C92.4285 69.2598 92.2405 69.4847 92.1288 69.7486C92.017 70.0124 91.9864 70.3032 92.0408 70.5844C92.0952 70.8655 92.2322 71.1243 92.4345 71.3279C92.6368 71.5315 92.8952 71.6709 93.1772 71.7283C93.4591 71.7857 93.7518 71.7587 94.0182 71.6506C94.2847 71.5424 94.5129 71.3581 94.674 71.1209C94.8898 70.8033 94.97 70.4134 94.8971 70.037C94.8243 69.6606 94.6042 69.3283 94.2853 69.1131Z" fill="#66FF63"/>
<path d="M100.527 67.1633C100.289 67.003 100.009 66.9165 99.7211 66.9149C99.4335 66.9132 99.1519 66.9964 98.9118 67.1539C98.6718 67.3114 98.484 67.5362 98.3724 67.7999C98.2607 68.0635 98.23 68.3542 98.2843 68.6352C98.3387 68.9161 98.4755 69.1748 98.6775 69.3784C98.8795 69.582 99.1376 69.7215 99.4193 69.7792C99.701 69.8369 99.9935 69.8102 100.26 69.7026C100.526 69.5949 100.755 69.4111 100.916 69.1743C101.132 68.8562 101.212 68.4658 101.14 68.0889C101.067 67.7119 100.847 67.3791 100.527 67.1633Z" fill="#66FF63"/>
<path d="M106.403 64.2467C106.165 64.0875 105.885 64.002 105.598 64.0011C105.312 64.0002 105.031 64.0838 104.792 64.2415C104.553 64.3992 104.366 64.6238 104.255 64.8869C104.144 65.1501 104.115 65.4401 104.169 65.7202C104.224 66.0003 104.361 66.258 104.563 66.4608C104.764 66.6636 105.022 66.8023 105.303 66.8595C105.584 66.9166 105.876 66.8897 106.141 66.782C106.407 66.6743 106.635 66.4908 106.795 66.2545C107.011 65.9365 107.091 65.5464 107.017 65.1699C106.944 64.7934 106.723 64.4614 106.403 64.2467Z" fill="#66FF63"/>
<path d="M100.855 59.6316C100.617 59.4724 100.336 59.3869 100.05 59.386C99.7628 59.3851 99.4822 59.4687 99.2431 59.6264C99.0041 59.784 98.8173 60.0086 98.7065 60.2718C98.5957 60.535 98.5657 60.825 98.6204 61.1051C98.6751 61.3852 98.8119 61.6429 99.0137 61.8457C99.2155 62.0484 99.4732 62.1872 99.7542 62.2443C100.035 62.3015 100.327 62.2746 100.593 62.1669C100.858 62.0592 101.086 61.8757 101.247 61.6394C101.462 61.3214 101.542 60.9313 101.468 60.5548C101.395 60.1783 101.174 59.8463 100.855 59.6316Z" fill="#66FF63"/>
<path d="M106.76 56.7118C106.522 56.5517 106.242 56.4654 105.955 56.4637C105.668 56.462 105.387 56.545 105.147 56.7023C104.908 56.8596 104.72 57.084 104.609 57.3472C104.498 57.6104 104.467 57.9006 104.522 58.181C104.576 58.4614 104.713 58.7195 104.914 58.9225C105.116 59.1256 105.374 59.2646 105.655 59.3219C105.936 59.3792 106.228 59.3523 106.494 59.2445C106.76 59.1367 106.988 58.9529 107.149 58.7163C107.364 58.3992 107.444 58.0099 107.371 57.634C107.298 57.258 107.078 56.9263 106.76 56.7118Z" fill="#66FF63"/>
<path d="M107.735 49.2316C107.497 49.0715 107.217 48.9852 106.93 48.9835C106.643 48.9818 106.362 49.0649 106.122 49.2222C105.883 49.3794 105.695 49.6039 105.584 49.8671C105.473 50.1303 105.442 50.4204 105.496 50.7008C105.551 50.9812 105.688 51.2393 105.889 51.4424C106.091 51.6455 106.349 51.7845 106.63 51.8418C106.911 51.8991 107.203 51.8721 107.469 51.7643C107.735 51.6565 107.963 51.4727 108.123 51.2362C108.338 50.9188 108.418 50.5297 108.345 50.1541C108.272 49.7784 108.053 49.4467 107.735 49.2316Z" fill="#66FF63"/>
<path d="M100.045 54.5525C100.283 54.7132 100.564 54.8 100.851 54.8019C101.139 54.8038 101.421 54.7207 101.661 54.5632C101.902 54.4057 102.09 54.1808 102.201 53.917C102.313 53.6532 102.344 53.3623 102.289 53.0812C102.235 52.8001 102.098 52.5413 101.896 52.3377C101.693 52.134 101.435 51.9947 101.153 51.9373C100.871 51.8798 100.578 51.9069 100.312 52.015C100.045 52.1231 99.8173 52.3074 99.6561 52.5447C99.5489 52.7018 99.4739 52.8785 99.4353 53.0645C99.3968 53.2505 99.3956 53.4423 99.4317 53.6288C99.4678 53.8153 99.5406 53.9929 99.6458 54.1514C99.751 54.3099 99.8866 54.4462 100.045 54.5525Z" fill="#66FF63"/>
<path d="M100.936 47.1883C101.174 47.349 101.454 47.4358 101.742 47.4378C102.03 47.4397 102.312 47.3566 102.552 47.1991C102.792 47.0416 102.98 46.8167 103.092 46.5529C103.204 46.2891 103.235 45.9982 103.18 45.717C103.126 45.4359 102.989 45.1772 102.786 44.9735C102.584 44.7699 102.326 44.6306 102.044 44.5731C101.762 44.5157 101.469 44.5427 101.203 44.6509C100.936 44.759 100.708 44.9433 100.547 45.1805C100.331 45.4982 100.251 45.888 100.324 46.2644C100.397 46.6409 100.617 46.9732 100.936 47.1883Z" fill="#66FF63"/>
<path d="M108.331 41.5323C108.093 41.3714 107.813 41.2842 107.526 41.2818C107.239 41.2793 106.957 41.3618 106.717 41.5186C106.477 41.6755 106.289 41.8998 106.177 42.163C106.065 42.4262 106.034 42.7166 106.088 42.9973C106.142 43.278 106.279 43.5364 106.481 43.7398C106.683 43.9432 106.941 44.0824 107.222 44.1399C107.503 44.1973 107.796 44.1704 108.062 44.0625C108.328 43.9546 108.555 43.7705 108.716 43.5337C108.931 43.2172 109.011 42.8289 108.939 42.4538C108.867 42.0787 108.648 41.7474 108.331 41.5323Z" fill="#66FF63"/>
<path d="M97.6154 42.4508C97.776 42.2135 97.8624 41.9342 97.8636 41.6482C97.8647 41.3621 97.7806 41.0821 97.6219 40.8436C97.4632 40.605 97.237 40.4186 96.9719 40.3079C96.7067 40.1973 96.4145 40.1673 96.1323 40.2217C95.85 40.2762 95.5903 40.4126 95.3859 40.6139C95.1816 40.8152 95.0418 41.0722 94.9842 41.3524C94.9266 41.6327 94.9538 41.9237 95.0623 42.1886C95.1709 42.4535 95.3559 42.6804 95.5941 42.8408C95.9142 43.0553 96.3068 43.1347 96.6858 43.0616C97.0647 42.9885 97.399 42.7688 97.6154 42.4508Z" fill="#66FF63"/>
<path d="M91.7652 43.8688C91.9264 43.6319 92.0132 43.3527 92.0149 43.0666C92.0166 42.7805 91.933 42.5003 91.7747 42.2614C91.6163 42.0226 91.3904 41.8358 91.1254 41.7247C90.8604 41.6136 90.5682 41.5831 90.2858 41.6371C90.0035 41.6912 89.7435 41.8273 89.5388 42.0282C89.3342 42.2292 89.194 42.4861 89.136 42.7663C89.078 43.0465 89.1048 43.3376 89.213 43.6027C89.3212 43.8677 89.506 44.0949 89.7439 44.2556C89.9021 44.3624 90.08 44.4371 90.2672 44.4754C90.4544 44.5138 90.6475 44.515 90.8352 44.4791C91.0229 44.4432 91.2017 44.3708 91.3613 44.2661C91.5209 44.1614 91.6581 44.0264 91.7652 43.8688Z" fill="#66FF63"/>
<path d="M85.5588 45.693C85.7199 45.4557 85.8066 45.1763 85.808 44.8901C85.8094 44.6038 85.7255 44.3236 85.5668 44.0848C85.4081 43.846 85.1817 43.6594 84.9164 43.5486C84.6511 43.4379 84.3587 43.4079 84.0763 43.4625C83.7938 43.517 83.534 43.6537 83.3297 43.8553C83.1253 44.0568 82.9857 44.3141 82.9283 44.5946C82.871 44.8751 82.8986 45.1663 83.0076 45.4312C83.1166 45.6961 83.3022 45.9229 83.5408 46.0829C83.6989 46.1895 83.8766 46.2639 84.0637 46.302C84.2508 46.34 84.4437 46.341 84.6312 46.3048C84.8186 46.2685 84.9971 46.1958 85.1563 46.0909C85.3155 45.9859 85.4523 45.8507 85.5588 45.693Z" fill="#66FF63"/>
<path d="M84.2792 53.0635C84.4408 52.8266 84.528 52.5473 84.5299 52.261C84.5318 51.9747 84.4484 51.6943 84.2901 51.4552C84.1317 51.2161 83.9057 51.0291 83.6405 50.9179C83.3754 50.8067 83.083 50.7762 82.8004 50.8304C82.5179 50.8845 82.2578 51.0209 82.0531 51.2221C81.8485 51.4234 81.7084 51.6805 81.6507 51.961C81.5929 52.2415 81.6201 52.5327 81.7288 52.7978C81.8375 53.0629 82.0228 53.2899 82.2612 53.4502C82.5804 53.6649 82.9723 53.7447 83.3506 53.6722C83.729 53.5997 84.063 53.3808 84.2792 53.0635Z" fill="#66FF63"/>
<path d="M88.1664 49.657C88.0064 49.8938 87.9205 50.1725 87.9196 50.4578C87.9186 50.7432 88.0027 51.0224 88.1612 51.2603C88.3196 51.4981 88.5454 51.6839 88.8099 51.7942C89.0744 51.9044 89.3659 51.9343 89.6474 51.8799C89.929 51.8255 90.188 51.6893 90.3918 51.4885C90.5956 51.2877 90.7351 51.0314 90.7925 50.7518C90.85 50.4722 90.8229 50.182 90.7147 49.9177C90.6064 49.6535 90.4219 49.427 90.1845 49.267C89.8648 49.0527 89.4727 48.9734 89.0943 49.0465C88.7159 49.1196 88.3822 49.3392 88.1664 49.657Z" fill="#66FF63"/>
<path d="M94.7713 49.8407C95.0094 50.0014 95.2902 50.0882 95.5779 50.0901C95.8657 50.092 96.1475 50.009 96.3878 49.8515C96.6281 49.694 96.8161 49.4691 96.9279 49.2052C97.0396 48.9414 97.0702 48.6506 97.0158 48.3694C96.9614 48.0883 96.8244 47.8295 96.6221 47.6259C96.4198 47.4223 96.1614 47.2829 95.8794 47.2255C95.5975 47.1681 95.3048 47.1951 95.0384 47.3032C94.7719 47.4114 94.5437 47.5957 94.3826 47.8329C94.2753 47.99 94.2003 48.1667 94.1618 48.3527C94.1233 48.5388 94.122 48.7305 94.1582 48.9171C94.1943 49.1036 94.267 49.2812 94.3722 49.4397C94.4774 49.5982 94.613 49.7344 94.7713 49.8407Z" fill="#66FF63"/>
<path d="M95.5098 54.6749C95.2714 54.5147 94.9905 54.4284 94.7028 54.427C94.4151 54.4256 94.1334 54.5091 93.8934 54.667C93.6534 54.8249 93.4659 55.0501 93.3545 55.314C93.2432 55.578 93.213 55.8689 93.2679 56.1499C93.3227 56.4309 93.4601 56.6894 93.6627 56.8927C93.8653 57.096 94.1239 57.235 94.4058 57.292C94.6878 57.3491 94.9804 57.3216 95.2467 57.2132C95.513 57.1047 95.7409 56.9201 95.9017 56.6827C96.1172 56.3647 96.1969 55.9746 96.1234 55.5981C96.0499 55.2216 95.8292 54.8896 95.5098 54.6749Z" fill="#66FF63"/>
<path d="M87.6675 58.9C87.9057 59.0607 88.1864 59.1475 88.4741 59.1494C88.7619 59.1513 89.0437 59.0683 89.284 58.9108C89.5243 58.7533 89.7123 58.5284 89.8241 58.2645C89.9358 58.0007 89.9665 57.7099 89.912 57.4287C89.8576 57.1476 89.7206 56.8888 89.5183 56.6852C89.316 56.4816 89.0576 56.3422 88.7756 56.2848C88.4937 56.2274 88.201 56.2544 87.9346 56.3625C87.6681 56.4707 87.4399 56.655 87.2788 56.8922C87.063 57.2098 86.9828 57.5997 87.0557 57.9761C87.1286 58.3525 87.3486 58.6848 87.6675 58.9Z" fill="#66FF63"/>
<path d="M83.3561 60.2536C83.5177 60.0167 83.6049 59.7374 83.6068 59.4511C83.6088 59.1648 83.5253 58.8844 83.367 58.6453C83.2086 58.4062 82.9826 58.2192 82.7174 58.108C82.4523 57.9968 82.1599 57.9663 81.8773 58.0205C81.5948 58.0746 81.3347 58.211 81.13 58.4122C80.9254 58.6135 80.7853 58.8706 80.7276 59.1511C80.6698 59.4316 80.697 59.7228 80.8057 59.9879C80.9144 60.253 81.0997 60.48 81.3381 60.6403C81.6573 60.855 82.0492 60.9348 82.4275 60.8623C82.8059 60.7898 83.1399 60.5709 83.3561 60.2536Z" fill="#66FF63"/>
<path d="M76.9683 62.0068C77.1283 61.77 77.2142 61.4913 77.2151 61.206C77.2161 60.9206 77.132 60.6414 76.9735 60.4036C76.815 60.1657 76.5893 59.9799 76.3248 59.8697C76.0602 59.7594 75.7688 59.7296 75.4873 59.784C75.2057 59.8384 74.9467 59.9746 74.7429 60.1753C74.5391 60.3761 74.3996 60.6325 74.3422 60.912C74.2847 61.1916 74.3118 61.4818 74.42 61.7461C74.5282 62.0103 74.7127 62.2368 74.9502 62.3968C75.2699 62.6111 75.662 62.6904 76.0404 62.6173C76.4188 62.5442 76.7525 62.3246 76.9683 62.0068Z" fill="#66FF63"/>
<path d="M77.48 52.8927C77.2419 52.732 76.9611 52.6452 76.6734 52.6433C76.3856 52.6414 76.1038 52.7245 75.8635 52.882C75.6232 53.0395 75.4352 53.2644 75.3235 53.5282C75.2117 53.792 75.1811 54.0829 75.2355 54.364C75.2899 54.6451 75.4269 54.9039 75.6292 55.1075C75.8315 55.3112 76.09 55.4505 76.3719 55.5079C76.6538 55.5654 76.9465 55.5383 77.2129 55.4302C77.4794 55.3221 77.7076 55.1377 77.8687 54.9005C78.0836 54.5826 78.1634 54.1931 78.0905 53.8169C78.0177 53.4407 77.7982 53.1085 77.48 52.8927Z" fill="#66FF63"/>
<path d="M70.9788 55.0165C70.7408 54.8573 70.4607 54.7719 70.1739 54.7709C69.8871 54.77 69.6065 54.8537 69.3674 55.0113C69.1283 55.169 68.9416 55.3936 68.8308 55.6568C68.7199 55.92 68.69 56.2099 68.7446 56.49C68.7993 56.7701 68.9362 57.0279 69.138 57.2306C69.3398 57.4334 69.5975 57.5721 69.8785 57.6293C70.1595 57.6865 70.4512 57.6595 70.7168 57.5518C70.9824 57.4442 71.21 57.2606 71.3708 57.0243C71.5862 56.7063 71.666 56.3162 71.5925 55.9397C71.519 55.5633 71.2983 55.2312 70.9788 55.0165Z" fill="#66FF63"/>
<path d="M64.4873 57.3692C64.2489 57.209 63.9681 57.1227 63.6803 57.1213C63.3926 57.1199 63.1109 57.2034 62.8709 57.3613C62.6309 57.5192 62.4434 57.7444 62.3321 58.0083C62.2207 58.2723 62.1906 58.5632 62.2454 58.8442C62.3003 59.1252 62.4377 59.3837 62.6402 59.587C62.8428 59.7903 63.1014 59.9293 63.3834 59.9863C63.6653 60.0433 63.958 60.0159 64.2242 59.9074C64.4905 59.799 64.7185 59.6144 64.8793 59.377C65.0947 59.059 65.1744 58.6689 65.1009 58.2924C65.0274 57.9159 64.8067 57.5839 64.4873 57.3692Z" fill="#66FF63"/>
<path d="M57.9505 59.8797C57.7125 59.7205 57.4324 59.6351 57.1456 59.6342C56.8588 59.6332 56.5781 59.7169 56.3391 59.8746C56.1 60.0322 55.9133 60.2568 55.8024 60.52C55.6916 60.7832 55.6616 61.0731 55.7163 61.3533C55.771 61.6334 55.9079 61.8911 56.1097 62.0938C56.3115 62.2966 56.5692 62.4353 56.8501 62.4925C57.1311 62.5497 57.4229 62.5227 57.6885 62.4151C57.9541 62.3074 58.1817 62.1238 58.3425 61.8876C58.45 61.7304 58.5252 61.5536 58.5637 61.3673C58.6022 61.1811 58.6032 60.9891 58.5668 60.8024C58.5304 60.6158 58.4571 60.4382 58.3514 60.2798C58.2456 60.1214 58.1094 59.9855 57.9505 59.8797Z" fill="#66FF63"/>
<path d="M65.4688 50.1856C65.2308 50.0264 64.9507 49.9409 64.6639 49.94C64.3771 49.9391 64.0964 50.0227 63.8574 50.1804C63.6183 50.338 63.4316 50.5626 63.3208 50.8258C63.2099 51.089 63.1799 51.379 63.2346 51.6591C63.2893 51.9392 63.4262 52.1969 63.628 52.3997C63.8298 52.6024 64.0875 52.7412 64.3685 52.7983C64.6494 52.8555 64.9412 52.8286 65.2068 52.7209C65.4724 52.6132 65.7 52.4296 65.8608 52.1934C66.0762 51.8754 66.1559 51.4852 66.0825 51.1088C66.009 50.7323 65.7883 50.4002 65.4688 50.1856Z" fill="#66FF63"/>
<path d="M72.1126 47.8683C71.8741 47.7081 71.5933 47.6218 71.3056 47.6204C71.0179 47.619 70.7362 47.7025 70.4962 47.8604C70.2562 48.0183 70.0687 48.2435 69.9573 48.5075C69.846 48.7714 69.8158 49.0623 69.8707 49.3433C69.9255 49.6243 70.0629 49.8828 70.2655 50.0862C70.468 50.2895 70.7267 50.4284 71.0086 50.4855C71.2906 50.5425 71.5832 50.5151 71.8495 50.4066C72.1158 50.2981 72.3437 50.1135 72.5045 49.8761C72.6116 49.7188 72.6864 49.542 72.7247 49.3558C72.763 49.1697 72.7639 48.9778 72.7275 48.7913C72.6911 48.6048 72.618 48.4272 72.5125 48.2688C72.407 48.1105 72.2711 47.9744 72.1126 47.8683Z" fill="#66FF63"/>
<path d="M77.0946 48.0682C77.3326 48.2274 77.6127 48.3128 77.8995 48.3137C78.1863 48.3147 78.467 48.231 78.7061 48.0734C78.9451 47.9157 79.1318 47.6911 79.2427 47.4279C79.3535 47.1647 79.3835 46.8748 79.3288 46.5947C79.2741 46.3145 79.1372 46.0568 78.9354 45.8541C78.7336 45.6513 78.476 45.5126 78.195 45.4554C77.914 45.3982 77.6223 45.4252 77.3567 45.5328C77.0911 45.6405 76.8635 45.8241 76.7027 46.0604C76.5951 46.2175 76.52 46.3944 76.4815 46.5806C76.443 46.7668 76.4419 46.9588 76.4783 47.1455C76.5148 47.3321 76.588 47.5097 76.6938 47.6681C76.7995 47.8265 76.9358 47.9624 77.0946 48.0682Z" fill="#66FF63"/>
<path d="M80.9817 40.3721C81.1427 40.1349 81.2294 39.8555 81.2309 39.5692C81.2323 39.2829 81.1483 39.0027 80.9896 38.7639C80.8309 38.5251 80.6046 38.3386 80.3393 38.2278C80.074 38.117 79.7816 38.087 79.4991 38.1416C79.2167 38.1962 78.9569 38.3329 78.7525 38.5344C78.5482 38.7359 78.4085 38.9932 78.3512 39.2738C78.2939 39.5543 78.3214 39.8454 78.4305 40.1103C78.5395 40.3753 78.725 40.6021 78.9636 40.7621C79.2833 40.9764 79.6754 41.0557 80.0538 40.9826C80.4322 40.9095 80.7659 40.6899 80.9817 40.3721Z" fill="#66FF63"/>
<path d="M82.6337 33.3045C82.7953 33.0675 82.8825 32.7882 82.8844 32.5019C82.8863 32.2157 82.8029 31.9352 82.6445 31.6962C82.4862 31.4571 82.2602 31.2701 81.995 31.1589C81.7299 31.0477 81.4375 31.0172 81.1549 31.0713C80.8724 31.1255 80.6123 31.2618 80.4076 31.4631C80.2029 31.6643 80.0629 31.9215 80.0052 32.202C79.9474 32.4824 79.9746 32.7737 80.0833 33.0388C80.192 33.3038 80.3772 33.5309 80.6157 33.6912C80.7736 33.7979 80.9512 33.8726 81.1382 33.9109C81.3251 33.9492 81.5179 33.9504 81.7054 33.9145C81.8928 33.8786 82.0713 33.8062 82.2306 33.7015C82.3899 33.5968 82.5269 33.4619 82.6337 33.3045Z" fill="#66FF63"/>
<path d="M81.7333 24.6319C81.5717 24.8688 81.4845 25.1481 81.4826 25.4344C81.4807 25.7207 81.5641 26.0012 81.7224 26.2402C81.8808 26.4793 82.1068 26.6663 82.372 26.7775C82.6371 26.8887 82.9295 26.9192 83.2121 26.865C83.4946 26.8109 83.7547 26.6746 83.9594 26.4733C84.164 26.272 84.3041 26.0149 84.3618 25.7344C84.4196 25.4539 84.3924 25.1627 84.2837 24.8976C84.175 24.6325 83.9897 24.4055 83.7513 24.2452C83.4321 24.0305 83.0402 23.9507 82.6619 24.0232C82.2835 24.0957 81.9495 24.3146 81.7333 24.6319Z" fill="#66FF63"/>
<path d="M87.4602 29.479C87.2987 29.716 87.2114 29.9953 87.2095 30.2815C87.2076 30.5678 87.2911 30.8483 87.4494 31.0873C87.6077 31.3264 87.8337 31.5134 88.0989 31.6246C88.3641 31.7358 88.6564 31.7663 88.939 31.7121C89.2216 31.658 89.4816 31.5217 89.6863 31.3204C89.891 31.1192 90.031 30.862 90.0888 30.5815C90.1465 30.3011 90.1193 30.0098 90.0106 29.7447C89.902 29.4796 89.7167 29.2526 89.4783 29.0923C89.159 28.8776 88.7672 28.7978 88.3888 28.8703C88.0104 28.9428 87.6765 29.1617 87.4602 29.479Z" fill="#66FF63"/>
<path d="M86.1419 38.5415C86.3799 38.7007 86.66 38.7862 86.9468 38.7871C87.2336 38.7881 87.5143 38.7044 87.7533 38.5467C87.9924 38.3891 88.1791 38.1645 88.29 37.9013C88.4008 37.6381 88.4308 37.3482 88.3761 37.068C88.3214 36.7879 88.1845 36.5302 87.9827 36.3274C87.7809 36.1247 87.5233 35.986 87.2423 35.9288C86.9613 35.8716 86.6696 35.8986 86.4039 36.0062C86.1383 36.1139 85.9108 36.2975 85.7499 36.5337C85.5345 36.8518 85.4548 37.2419 85.5283 37.6183C85.6018 37.9948 85.8225 38.3269 86.1419 38.5415Z" fill="#66FF63"/>
<path d="M93.1516 34.2649C92.9905 34.5021 92.9038 34.7815 92.9024 35.0678C92.9009 35.354 92.9849 35.6343 93.1436 35.8731C93.3023 36.1118 93.5286 36.2984 93.794 36.4092C94.0593 36.52 94.3516 36.55 94.6341 36.4954C94.9165 36.4408 95.1764 36.3041 95.3807 36.1026C95.585 35.901 95.7247 35.6437 95.782 35.3632C95.8394 35.0827 95.8118 34.7916 95.7028 34.5266C95.5938 34.2617 95.4082 34.0349 95.1696 33.8749C94.8497 33.6615 94.4579 33.5826 94.0797 33.6557C93.7016 33.7288 93.3679 33.9478 93.1516 34.2649Z" fill="#66FF63"/>
<path d="M100.651 32.6084C100.889 32.7676 101.169 32.853 101.455 32.854C101.742 32.8549 102.023 32.7712 102.262 32.6136C102.501 32.4559 102.688 32.2313 102.799 31.9681C102.909 31.705 102.939 31.415 102.885 31.1349C102.83 30.8548 102.693 30.597 102.491 30.3943C102.29 30.1915 102.032 30.0528 101.751 29.9956C101.47 29.9384 101.178 29.9654 100.913 30.0731C100.647 30.1807 100.419 30.3643 100.259 30.6006C100.043 30.9186 99.9634 31.3087 100.037 31.6852C100.11 32.0617 100.331 32.3937 100.651 32.6084Z" fill="#66FF63"/>
<path d="M100.822 39.5277C101.061 39.688 101.341 39.7743 101.629 39.7757C101.917 39.7771 102.199 39.6935 102.439 39.5356C102.679 39.3777 102.866 39.1526 102.977 38.8886C103.089 38.6246 103.119 38.3338 103.064 38.0527C103.009 37.7717 102.872 37.5132 102.669 37.3099C102.467 37.1066 102.208 36.9676 101.926 36.9106C101.644 36.8536 101.352 36.881 101.085 36.9895C100.819 37.0979 100.591 37.2825 100.43 37.5199C100.323 37.6773 100.248 37.8541 100.21 38.0402C100.172 38.2264 100.171 38.4182 100.207 38.6048C100.244 38.7913 100.317 38.9689 100.422 39.1272C100.528 39.2856 100.664 39.4217 100.822 39.5277Z" fill="#66FF63"/>
<path d="M108.451 34.107C108.213 33.9469 107.933 33.8606 107.646 33.8589C107.359 33.8572 107.078 33.9403 106.838 34.0975C106.599 34.2548 106.411 34.4792 106.3 34.7424C106.188 35.0056 106.158 35.2958 106.212 35.5762C106.267 35.8566 106.404 36.1147 106.605 36.3178C106.807 36.5209 107.065 36.6599 107.346 36.7172C107.627 36.7745 107.919 36.7475 108.185 36.6397C108.451 36.5319 108.679 36.3481 108.839 36.1116C109.054 35.7942 109.134 35.4051 109.061 35.0295C108.988 34.6538 108.769 34.3221 108.451 34.107Z" fill="#66FF63"/>
<path d="M109.04 26.8685C108.803 26.7091 108.524 26.6233 108.237 26.6218C107.951 26.6204 107.671 26.7034 107.432 26.8604C107.193 27.0175 107.006 27.2414 106.895 27.504C106.784 27.7666 106.754 28.056 106.808 28.3357C106.863 28.6154 106.999 28.8728 107.2 29.0753C107.402 29.2779 107.659 29.4165 107.939 29.4737C108.22 29.5308 108.511 29.504 108.776 29.3965C109.041 29.2891 109.269 29.1058 109.429 28.8699C109.536 28.7133 109.611 28.5371 109.649 28.3516C109.688 28.1661 109.689 27.9748 109.653 27.7888C109.617 27.6028 109.544 27.4258 109.439 27.2678C109.334 27.1099 109.198 26.9742 109.04 26.8685Z" fill="#66FF63"/>
<path d="M103.916 24.8414C104.077 24.6045 104.164 24.3252 104.166 24.0389C104.168 23.7526 104.085 23.4722 103.927 23.2331C103.768 22.994 103.542 22.807 103.277 22.6958C103.012 22.5846 102.719 22.5541 102.437 22.6083C102.154 22.6624 101.894 22.7988 101.69 23C101.485 23.2013 101.345 23.4584 101.287 23.7389C101.229 24.0194 101.257 24.3106 101.365 24.5757C101.474 24.8408 101.659 25.0678 101.898 25.2281C102.217 25.4419 102.609 25.5213 102.987 25.4488C103.365 25.3764 103.699 25.158 103.916 24.8414Z" fill="#66FF63"/>
<path d="M98.192 21.1029C98.3535 20.866 98.4407 20.5867 98.4426 20.3004C98.4446 20.0141 98.3611 19.7337 98.2028 19.4946C98.0445 19.2555 97.8184 19.0686 97.5532 18.9573C97.2881 18.8461 96.9957 18.8157 96.7132 18.8698C96.4306 18.924 96.1705 19.0603 95.9658 19.2615C95.7612 19.4628 95.6211 19.7199 95.5634 20.0004C95.5057 20.2809 95.5328 20.5721 95.6415 20.8372C95.7502 21.1023 95.9355 21.3294 96.1739 21.4897C96.4934 21.7035 96.885 21.7828 97.2631 21.7103C97.6412 21.6379 97.9751 21.4195 98.192 21.1029Z" fill="#66FF63"/>
<path d="M102.562 15.3083C102.4 15.5453 102.313 15.8246 102.311 16.1109C102.309 16.3971 102.393 16.6776 102.551 16.9167C102.709 17.1557 102.935 17.3427 103.2 17.4539C103.466 17.5651 103.758 17.5956 104.041 17.5415C104.323 17.4873 104.583 17.351 104.788 17.1497C104.993 16.9485 105.133 16.6913 105.19 16.4108C105.248 16.1304 105.221 15.8392 105.112 15.5741C105.004 15.309 104.818 15.0819 104.58 14.9216C104.422 14.8149 104.244 14.7402 104.057 14.7019C103.87 14.6636 103.678 14.6624 103.49 14.6983C103.303 14.7342 103.124 14.8066 102.965 14.9113C102.806 15.016 102.669 15.1509 102.562 15.3083Z" fill="#66FF63"/>
<path d="M109.908 18.9018C109.671 18.7417 109.391 18.6554 109.104 18.6537C108.816 18.652 108.535 18.7351 108.296 18.8923C108.056 19.0496 107.869 19.274 107.758 19.5372C107.646 19.8004 107.616 20.0906 107.67 20.371C107.724 20.6514 107.861 20.9095 108.063 21.1126C108.265 21.3157 108.523 21.4546 108.804 21.512C109.085 21.5693 109.377 21.5423 109.643 21.4345C109.909 21.3267 110.136 21.1429 110.297 20.9064C110.513 20.5892 110.593 20.1999 110.52 19.824C110.447 19.4481 110.227 19.1164 109.908 18.9018Z" fill="#66FF63"/>
<path d="M109.944 10.2227C109.706 10.062 109.425 9.97524 109.137 9.97333C108.85 9.97141 108.568 10.0545 108.327 10.212C108.087 10.3695 107.899 10.5944 107.787 10.8582C107.676 11.122 107.645 11.4129 107.699 11.694C107.754 11.9752 107.891 12.2339 108.093 12.4375C108.295 12.6412 108.554 12.7805 108.836 12.838C109.118 12.8954 109.41 12.8683 109.677 12.7602C109.943 12.6521 110.172 12.4678 110.333 12.2306C110.548 11.9129 110.629 11.5231 110.556 11.1466C110.483 10.7702 110.263 10.4379 109.944 10.2227Z" fill="#66FF63"/>
<path d="M110.359 2.20116C110.12 2.04092 109.839 1.95464 109.552 1.95323C109.264 1.95183 108.982 2.03536 108.742 2.19326C108.502 2.35115 108.315 2.57633 108.203 2.84029C108.092 3.10425 108.062 3.39514 108.117 3.67615C108.172 3.95716 108.309 4.21567 108.512 4.41898C108.714 4.62228 108.973 4.76124 109.255 4.81828C109.537 4.87532 109.829 4.84787 110.096 4.73941C110.362 4.63096 110.59 4.44636 110.751 4.20897C110.966 3.89095 111.046 3.50084 110.972 3.12437C110.899 2.74789 110.678 2.41584 110.359 2.20116Z" fill="#66FF63"/>
<path d="M101.755 8.24715C101.994 8.40739 102.274 8.49367 102.562 8.49508C102.85 8.49648 103.132 8.41295 103.372 8.25506C103.612 8.09716 103.799 7.87198 103.91 7.60802C104.022 7.34406 104.052 7.05318 103.997 6.77216C103.942 6.49115 103.805 6.23264 103.602 6.02934C103.4 5.82603 103.141 5.68707 102.859 5.63003C102.577 5.57299 102.285 5.60044 102.018 5.70889C101.752 5.81735 101.524 6.00195 101.363 6.23934C101.148 6.55736 101.068 6.94747 101.142 7.32394C101.215 7.70042 101.436 8.03247 101.755 8.24715Z" fill="#66FF63"/>
<path d="M95.9212 2.64595C96.1593 2.80665 96.44 2.89345 96.7278 2.89536C97.0155 2.89728 97.2974 2.81422 97.5377 2.65671C97.778 2.49919 97.9659 2.2743 98.0777 2.01049C98.1895 1.74667 98.2201 1.45579 98.1657 1.17466C98.1113 0.893527 97.9742 0.634776 97.772 0.43115C97.5697 0.227523 97.3112 0.0881731 97.0293 0.0307341C96.7474 -0.026705 96.4547 0.000347962 96.1882 0.10847C95.9218 0.216593 95.6936 0.400925 95.5324 0.63814C95.3167 0.955775 95.2365 1.3456 95.3093 1.72205C95.3822 2.09849 95.6023 2.43077 95.9212 2.64595Z" fill="#66FF63"/>
<path d="M88.0142 5.2274C88.2522 5.3866 88.5323 5.47206 88.8191 5.47299C89.1059 5.47391 89.3866 5.39026 89.6256 5.2326C89.8647 5.07494 90.0514 4.85034 90.1623 4.58715C90.2731 4.32397 90.3031 4.03402 90.2484 3.7539C90.1937 3.47378 90.0568 3.21607 89.855 3.0133C89.6532 2.81053 89.3956 2.6718 89.1146 2.61463C88.8336 2.55746 88.5419 2.58441 88.2763 2.69209C88.0107 2.79976 87.7831 2.98332 87.6222 3.21959C87.4068 3.53762 87.3271 3.92772 87.4006 4.3042C87.4741 4.68067 87.6948 5.01272 88.0142 5.2274Z" fill="#66FF63"/>
<path d="M93.3428 9.4267C93.5798 9.58923 93.8601 9.67809 94.148 9.68203C94.4358 9.68597 94.7184 9.60482 94.9599 9.44885C95.2014 9.29289 95.3909 9.06912 95.5045 8.8059C95.618 8.54268 95.6505 8.25185 95.5978 7.97025C95.5451 7.68864 95.4096 7.42893 95.2084 7.22402C95.0073 7.0191 94.7495 6.8782 94.4678 6.81916C94.186 6.76012 93.893 6.78559 93.6259 6.89236C93.3587 6.99912 93.1294 7.18237 92.967 7.4189C92.8591 7.57526 92.7833 7.75125 92.7438 7.93679C92.7043 8.12233 92.7019 8.3138 92.7368 8.50025C92.7717 8.6867 92.8432 8.86449 92.9471 9.02346C93.0511 9.18242 93.1855 9.31944 93.3428 9.4267Z" fill="#66FF63"/>
<path d="M97.0615 12.3176C96.9004 12.5548 96.8137 12.8342 96.8123 13.1205C96.8109 13.4067 96.8948 13.687 97.0535 13.9258C97.2122 14.1645 97.4386 14.3511 97.7039 14.4619C97.9692 14.5727 98.2615 14.6027 98.544 14.5481C98.8264 14.4935 99.0863 14.3568 99.2906 14.1553C99.495 13.9537 99.6346 13.6964 99.692 13.4159C99.7493 13.1354 99.7217 12.8443 99.6127 12.5793C99.5037 12.3144 99.3181 12.0876 99.0795 11.9276C98.9214 11.8211 98.7437 11.7466 98.5566 11.7086C98.3694 11.6705 98.1766 11.6695 97.9891 11.7058C97.8016 11.742 97.6232 11.8147 97.464 11.9197C97.3048 12.0247 97.168 12.1599 97.0615 12.3176Z" fill="#66FF63"/>
<path d="M90.6995 16.9036C90.9376 17.0643 91.2184 17.1511 91.5061 17.153C91.7939 17.1549 92.0757 17.0719 92.316 16.9144C92.5563 16.7569 92.7443 16.532 92.856 16.2681C92.9678 16.0043 92.9985 15.7135 92.944 15.4323C92.8896 15.1512 92.7526 14.8924 92.5503 14.6888C92.348 14.4852 92.0896 14.3458 91.8076 14.2884C91.5257 14.231 91.233 14.258 90.9666 14.3661C90.7001 14.4743 90.4719 14.6586 90.3108 14.8958C90.095 15.2134 90.0148 15.6033 90.0877 15.9797C90.1605 16.3561 90.3806 16.6884 90.6995 16.9036Z" fill="#66FF63"/>
<path d="M94.8199 28.8409C95.058 29.0016 95.3387 29.0884 95.6265 29.0903C95.9143 29.0922 96.1961 29.0092 96.4364 28.8517C96.6767 28.6941 96.8646 28.4692 96.9764 28.2054C97.0882 27.9416 97.1188 27.6507 97.0644 27.3696C97.01 27.0885 96.873 26.8297 96.6707 26.6261C96.4684 26.4225 96.2099 26.2831 95.928 26.2257C95.6461 26.1682 95.3534 26.1953 95.087 26.3034C94.8205 26.4115 94.5923 26.5959 94.4312 26.8331C94.3239 26.9902 94.2489 27.1669 94.2104 27.3529C94.1719 27.539 94.1706 27.7307 94.2067 27.9172C94.2428 28.1038 94.3156 28.2814 94.4208 28.4399C94.526 28.5984 94.6616 28.7346 94.8199 28.8409Z" fill="#66FF63"/>
<path d="M89.2127 24.2548C89.4511 24.4151 89.732 24.5014 90.0197 24.5028C90.3074 24.5042 90.5891 24.4206 90.8291 24.2627C91.0691 24.1048 91.2566 23.8797 91.368 23.6157C91.4793 23.3518 91.5095 23.0609 91.4546 22.7799C91.3997 22.4988 91.2623 22.2403 91.0598 22.037C90.8572 21.8337 90.5986 21.6948 90.3167 21.6377C90.0347 21.5807 89.7421 21.6081 89.4758 21.7166C89.2095 21.825 88.9816 22.0096 88.8208 22.247C88.7137 22.4044 88.6389 22.5812 88.6006 22.7673C88.5623 22.9535 88.5614 23.1454 88.5978 23.3319C88.6342 23.5184 88.7073 23.696 88.8128 23.8543C88.9183 24.0127 89.0542 24.1488 89.2127 24.2548Z" fill="#66FF63"/>
<path d="M83.6929 19.4948C83.9311 19.6555 84.2118 19.7423 84.4996 19.7442C84.7873 19.7461 85.0692 19.663 85.3095 19.5055C85.5498 19.348 85.7377 19.1231 85.8495 18.8593C85.9613 18.5955 85.9919 18.3046 85.9375 18.0235C85.883 17.7423 85.746 17.4836 85.5437 17.28C85.3414 17.0763 85.083 16.937 84.8011 16.8795C84.5192 16.8221 84.2265 16.8492 83.96 16.9573C83.6936 17.0654 83.4653 17.2497 83.3042 17.487C83.197 17.6441 83.1219 17.8207 83.0834 18.0068C83.0449 18.1928 83.0437 18.3846 83.0798 18.5711C83.1159 18.7576 83.1886 18.9352 83.2939 19.0937C83.3991 19.2522 83.5347 19.3885 83.6929 19.4948Z" fill="#66FF63"/>
<path d="M85.7402 12.1758C85.9786 12.336 86.2594 12.4223 86.5472 12.4237C86.8349 12.4251 87.1166 12.3416 87.3566 12.1837C87.5966 12.0258 87.7841 11.8006 87.8954 11.5366C88.0068 11.2727 88.0369 10.9818 87.9821 10.7008C87.9272 10.4198 87.7898 10.1613 87.5873 9.95795C87.3847 9.75465 87.1261 9.61569 86.8441 9.55865C86.5622 9.50161 86.2695 9.52906 86.0033 9.63752C85.737 9.74598 85.509 9.93057 85.3482 10.168C85.2411 10.3253 85.1663 10.5021 85.1281 10.6883C85.0898 10.8744 85.0888 11.0663 85.1253 11.2528C85.1617 11.4394 85.2347 11.6169 85.3402 11.7753C85.4458 11.9337 85.5817 12.0698 85.7402 12.1758Z" fill="#66FF63"/>
<path d="M80.0747 8.03123C80.3131 8.19031 80.5934 8.27569 80.8804 8.27661C81.1674 8.27753 81.4482 8.19396 81.6876 8.03641C81.9269 7.87886 82.1141 7.65437 82.2255 7.39122C82.3368 7.12807 82.3675 6.83802 82.3135 6.55757C82.2596 6.27712 82.1235 6.01882 81.9223 5.81519C81.7211 5.61156 81.4639 5.4717 81.1829 5.41322C80.902 5.35473 80.61 5.38024 80.3436 5.48653C80.0773 5.59282 79.8485 5.77514 79.686 6.01053C79.5767 6.16812 79.5 6.34577 79.4604 6.53312C79.4208 6.72047 79.419 6.9138 79.4552 7.10184C79.4914 7.28989 79.5648 7.4689 79.6711 7.62845C79.7775 7.78801 79.9147 7.92492 80.0747 8.03123Z" fill="#66FF63"/>
<path d="M74.1307 4.11554C74.3157 4.24107 74.534 4.30913 74.7579 4.31106C74.9818 4.313 75.2013 4.24873 75.3884 4.12642C75.5756 4.0041 75.722 3.82924 75.8091 3.62402C75.8963 3.41879 75.9202 3.19245 75.8778 2.97368C75.8355 2.75492 75.7288 2.55359 75.5713 2.39523C75.4138 2.23687 75.2126 2.12861 74.9932 2.08418C74.7737 2.03975 74.546 2.06115 74.3388 2.14567C74.1316 2.23019 73.9544 2.37402 73.8294 2.55892C73.6629 2.8054 73.6012 3.10739 73.6576 3.39901C73.714 3.69062 73.8841 3.9482 74.1307 4.11554Z" fill="#66FF63"/>
<path d="M72.4301 10.3194C72.6683 10.4797 72.9489 10.5662 73.2365 10.5678C73.524 10.5695 73.8056 10.4863 74.0457 10.3288C74.2857 10.1713 74.4735 9.94647 74.5852 9.68282C74.6969 9.41917 74.7275 9.1285 74.6732 8.84754C74.6189 8.56658 74.4821 8.30794 74.2801 8.10431C74.0781 7.90068 73.8199 7.7612 73.5382 7.7035C73.2566 7.6458 72.964 7.67247 72.6976 7.78013C72.4312 7.88779 72.2028 8.07162 72.0414 8.30838C71.8254 8.62653 71.7451 9.01686 71.818 9.39382C71.8908 9.77079 72.111 10.1036 72.4301 10.3194Z" fill="#66FF63"/>
<path d="M78.251 14.8668C78.4892 15.0275 78.7699 15.1143 79.0577 15.1162C79.3454 15.1181 79.6273 15.0351 79.8676 14.8776C80.1079 14.72 80.2958 14.4952 80.4076 14.2313C80.5194 13.9675 80.55 13.6766 80.4956 13.3955C80.4411 13.1144 80.3041 12.8556 80.1018 12.652C79.8995 12.4484 79.6411 12.309 79.3592 12.2516C79.0773 12.1942 78.7846 12.2212 78.5181 12.3293C78.2517 12.4374 78.0234 12.6218 77.8623 12.859C77.7551 13.0161 77.68 13.1928 77.6415 13.3788C77.603 13.5649 77.6018 13.7566 77.6379 13.9432C77.674 14.1297 77.7467 14.3073 77.852 14.4658C77.9572 14.6243 78.0928 14.7605 78.251 14.8668Z" fill="#66FF63"/>
<path d="M65.5142 10.3162C65.7493 10.4748 66.0264 10.5603 66.3104 10.5621C66.5944 10.5638 66.8726 10.4817 67.1096 10.326C67.3467 10.1704 67.532 9.94828 67.6421 9.68779C67.7522 9.4273 67.7821 9.14017 67.7281 8.86275C67.674 8.58533 67.5384 8.33011 67.3385 8.1294C67.1386 7.92869 66.8833 7.79152 66.6049 7.73527C66.3266 7.67902 66.0377 7.70621 65.7749 7.8134C65.5121 7.92059 65.2872 8.10296 65.1287 8.33741C64.9167 8.65087 64.8382 9.03514 64.9105 9.40605C64.9828 9.77695 65.1998 10.1042 65.5142 10.3162Z" fill="#66FF63"/>
<path d="M59.8066 12.859C59.8261 12.8364 59.8617 12.8397 59.8779 12.8106C59.9839 12.6684 60.0599 12.5062 60.1012 12.3339C60.1426 12.1616 60.1484 11.9827 60.1184 11.8081C60.0883 11.6335 60.0231 11.4668 59.9265 11.318C59.8299 11.1692 59.7041 11.0414 59.5565 10.9422C59.409 10.8431 59.2428 10.7748 59.0679 10.7413C58.8931 10.7079 58.7132 10.71 58.5393 10.7476C58.3653 10.7851 58.2007 10.8574 58.0556 10.9599C57.9104 11.0625 57.7876 11.1932 57.6946 11.3443C57.5394 11.5887 57.4737 11.879 57.5085 12.1661C57.5433 12.4531 57.6765 12.7195 57.8857 12.9202L59.8066 12.859Z" fill="#66FF63"/>
<path d="M76.424 21.7733C76.6622 21.934 76.9429 22.0208 77.2306 22.0227C77.5184 22.0246 77.8003 21.9416 78.0405 21.7841C78.2808 21.6265 78.4688 21.4017 78.5806 21.1378C78.6923 20.874 78.723 20.5831 78.6685 20.302C78.6141 20.0209 78.4771 19.7621 78.2748 19.5585C78.0725 19.3549 77.8141 19.2155 77.5322 19.1581C77.2502 19.1006 76.9575 19.1277 76.6911 19.2358C76.4246 19.3439 76.1964 19.5283 76.0353 19.7655C75.928 19.9226 75.853 20.0993 75.8145 20.2853C75.776 20.4714 75.7748 20.6631 75.8109 20.8496C75.847 21.0362 75.9197 21.2138 76.0249 21.3723C76.1301 21.5308 76.2658 21.667 76.424 21.7733Z" fill="#66FF63"/>
<path d="M76.9553 28.4219C77.1154 28.1851 77.2013 27.9065 77.2022 27.6211C77.2031 27.3358 77.119 27.0565 76.9606 26.8187C76.8021 26.5809 76.5764 26.3951 76.3118 26.2848C76.0473 26.1745 75.7559 26.1447 75.4743 26.1991C75.1928 26.2535 74.9337 26.3897 74.7299 26.5905C74.5261 26.7912 74.3867 27.0476 74.3292 27.3272C74.2718 27.6067 74.2989 27.897 74.4071 28.1612C74.5153 28.4255 74.6998 28.6519 74.9373 28.8119C75.2569 29.0262 75.649 29.1056 76.0274 29.0324C76.4058 28.9593 76.7396 28.7397 76.9553 28.4219Z" fill="#66FF63"/>
<path d="M75.5365 35.4928C75.6965 35.256 75.7824 34.9773 75.7834 34.6919C75.7843 34.4066 75.7002 34.1274 75.5417 33.8895C75.3833 33.6517 75.1575 33.4659 74.893 33.3556C74.6285 33.2453 74.337 33.2155 74.0555 33.2699C73.7739 33.3243 73.5149 33.4605 73.3111 33.6613C73.1073 33.8621 72.9679 34.1184 72.9104 34.398C72.8529 34.6776 72.88 34.9678 72.9883 35.2321C73.0965 35.4963 73.281 35.7227 73.5185 35.8827C73.8381 36.0971 74.2302 36.1764 74.6086 36.1033C74.987 36.0302 75.3207 35.8106 75.5365 35.4928Z" fill="#66FF63"/>
<path d="M68.598 37.7391C68.7595 37.5021 68.8467 37.2228 68.8487 36.9366C68.8506 36.6503 68.7671 36.3698 68.6088 36.1308C68.4505 35.8917 68.2244 35.7047 67.9593 35.5935C67.6941 35.4823 67.4017 35.4518 67.1192 35.5059C66.8366 35.5601 66.5765 35.6964 66.3719 35.8977C66.1672 36.0989 66.0271 36.3561 65.9694 36.6366C65.9117 36.917 65.9389 37.2082 66.0475 37.4733C66.1562 37.7384 66.3415 37.9655 66.5799 38.1258C66.8994 38.3396 67.291 38.4189 67.6691 38.3465C68.0472 38.274 68.3811 38.0557 68.598 37.7391Z" fill="#66FF63"/>
<path d="M74.0108 42.6313C74.1708 42.3945 74.2567 42.1158 74.2576 41.8305C74.2585 41.5451 74.1745 41.2659 74.016 41.028C73.8575 40.7902 73.6318 40.6044 73.3672 40.4941C73.1027 40.3839 72.8113 40.354 72.5297 40.4084C72.2482 40.4628 71.9892 40.599 71.7854 40.7998C71.5815 41.0006 71.4421 41.2569 71.3846 41.5365C71.3272 41.8161 71.3543 42.1063 71.4625 42.3706C71.5707 42.6348 71.7552 42.8613 71.9927 43.0213C72.3123 43.2356 72.7044 43.3149 73.0828 43.2418C73.4612 43.1687 73.795 42.9491 74.0108 42.6313Z" fill="#66FF63"/>
<path d="M66.8099 42.9858C66.5717 42.8251 66.291 42.7383 66.0032 42.7364C65.7155 42.7345 65.4336 42.8175 65.1933 42.975C64.953 43.1326 64.7651 43.3575 64.6533 43.6213C64.5415 43.8851 64.5109 44.176 64.5653 44.4571C64.6197 44.7382 64.7568 44.997 64.959 45.2006C65.1613 45.4042 65.4198 45.5436 65.7017 45.601C65.9836 45.6585 66.2763 45.6314 66.5428 45.5233C66.8092 45.4152 67.0374 45.2308 67.1986 44.9936C67.4143 44.676 67.4945 44.2861 67.4217 43.9097C67.3488 43.5333 67.1288 43.201 66.8099 42.9858Z" fill="#66FF63"/>
<path d="M55.9681 33.7267C55.7301 33.5675 55.45 33.482 55.1632 33.4811C54.8764 33.4802 54.5957 33.5638 54.3567 33.7215C54.1176 33.8791 53.9309 34.1037 53.82 34.3669C53.7092 34.6301 53.6792 34.9201 53.7339 35.2002C53.7886 35.4803 53.9255 35.738 54.1273 35.9408C54.3291 36.1435 54.5867 36.2823 54.8677 36.3394C55.1487 36.3966 55.4404 36.3697 55.706 36.262C55.9716 36.1543 56.1992 35.9708 56.3601 35.7345C56.5755 35.4165 56.6552 35.0264 56.5817 34.6499C56.5082 34.2734 56.2875 33.9413 55.9681 33.7267Z" fill="#66FF63"/>
<path d="M69.9682 30.5039C70.1297 30.2669 70.217 29.9876 70.2189 29.7013C70.2208 29.4151 70.1373 29.1346 69.979 28.8956C69.8207 28.6565 69.5947 28.4695 69.3295 28.3583C69.0643 28.2471 68.772 28.2166 68.4894 28.2707C68.2068 28.3249 67.9468 28.4612 67.7421 28.6625C67.5374 28.8637 67.3974 29.1209 67.3396 29.4014C67.2819 29.6818 67.3091 29.973 67.4178 30.2381C67.5264 30.5032 67.7117 30.7303 67.9501 30.8906C68.1081 30.9973 68.2856 31.072 68.4726 31.1103C68.6596 31.1486 68.8524 31.1498 69.0398 31.1139C69.2273 31.078 69.4058 31.0056 69.5651 30.9009C69.7244 30.7962 69.8614 30.6613 69.9682 30.5039Z" fill="#66FF63"/>
<path d="M57.2574 26.2176C57.0192 26.0569 56.7385 25.9701 56.4507 25.9681C56.163 25.9662 55.8811 26.0493 55.6408 26.2068C55.4005 26.3643 55.2126 26.5892 55.1008 26.853C54.989 27.1168 54.9584 27.4077 55.0128 27.6888C55.0673 27.97 55.2043 28.2287 55.4066 28.4324C55.6088 28.636 55.8673 28.7753 56.1492 28.8328C56.4311 28.8902 56.7238 28.8632 56.9903 28.755C57.2567 28.6469 57.485 28.4626 57.6461 28.2254C57.8618 27.9077 57.9421 27.5179 57.8692 27.1415C57.7963 26.765 57.5763 26.4327 57.2574 26.2176Z" fill="#66FF63"/>
<path d="M50.4159 29.4758C50.1778 29.3151 49.8971 29.2283 49.6093 29.2264C49.3215 29.2245 49.0397 29.3075 48.7994 29.465C48.5591 29.6225 48.3712 29.8474 48.2594 30.1113C48.1476 30.3751 48.117 30.666 48.1714 30.9471C48.2258 31.2282 48.3628 31.487 48.5651 31.6906C48.7674 31.8942 49.0259 32.0336 49.3078 32.091C49.5897 32.1484 49.8824 32.1214 50.1488 32.0133C50.4153 31.9051 50.6435 31.7208 50.8046 31.4836C51.0204 31.166 51.1006 30.7761 51.0277 30.3997C50.9549 30.0233 50.7348 29.691 50.4159 29.4758Z" fill="#66FF63"/>
<path d="M42.8653 27.9772C43.1034 28.1379 43.3842 28.2247 43.6719 28.2266C43.9597 28.2285 44.2415 28.1455 44.4818 27.9879C44.7221 27.8304 44.9101 27.6055 45.0218 27.3417C45.1336 27.0779 45.1642 26.787 45.1098 26.5059C45.0554 26.2248 44.9184 25.966 44.7161 25.7624C44.5138 25.5588 44.2553 25.4194 43.9734 25.362C43.6915 25.3045 43.3988 25.3316 43.1324 25.4397C42.8659 25.5478 42.6377 25.7322 42.4766 25.9694C42.3693 26.1265 42.2943 26.3032 42.2558 26.4892C42.2173 26.6753 42.216 26.867 42.2521 27.0535C42.2883 27.2401 42.361 27.4176 42.4662 27.5761C42.5714 27.7346 42.707 27.8709 42.8653 27.9772Z" fill="#66FF63"/>
<path d="M51.4558 22.044C51.2174 21.8838 50.9366 21.7975 50.6488 21.7961C50.3611 21.7947 50.0794 21.8782 49.8394 22.0361C49.5995 22.194 49.4119 22.4192 49.3006 22.6831C49.1892 22.9471 49.1591 23.238 49.2139 23.519C49.2688 23.8 49.4062 24.0585 49.6088 24.2618C49.8113 24.4651 50.0699 24.6041 50.3519 24.6611C50.6338 24.7182 50.9265 24.6907 51.1927 24.5822C51.459 24.4738 51.687 24.2892 51.8478 24.0518C51.9549 23.8945 52.0297 23.7177 52.068 23.5315C52.1062 23.3453 52.1072 23.1535 52.0708 22.9669C52.0343 22.7804 51.9613 22.6029 51.8558 22.4445C51.7502 22.2861 51.6143 22.15 51.4558 22.044Z" fill="#66FF63"/>
<path d="M36.7528 24.026C36.9888 24.185 37.267 24.2708 37.5521 24.2726C37.8372 24.2743 38.1164 24.1919 38.3544 24.0357C38.5924 23.8796 38.7785 23.6567 38.8892 23.3954C38.9999 23.134 39.0302 22.8458 38.9763 22.5673C38.9224 22.2887 38.7867 22.0324 38.5864 21.8306C38.386 21.6288 38.13 21.4906 37.8508 21.4336C37.5715 21.3766 37.2815 21.4032 37.0174 21.5101C36.7534 21.617 36.5271 21.7995 36.3673 22.0343C36.2611 22.1903 36.1869 22.3655 36.1488 22.55C36.1108 22.7345 36.1096 22.9247 36.1454 23.1096C36.1812 23.2946 36.2532 23.4707 36.3575 23.6279C36.4617 23.7852 36.596 23.9204 36.7528 24.026Z" fill="#66FF63"/>
<path d="M35.7518 31.2226C35.9899 31.3833 36.2706 31.4701 36.5584 31.472C36.8461 31.4739 37.128 31.3908 37.3683 31.2333C37.6086 31.0758 37.7965 30.8509 37.9083 30.5871C38.0201 30.3233 38.0507 30.0324 37.9963 29.7513C37.9419 29.4702 37.8048 29.2114 37.6026 29.0078C37.4003 28.8041 37.1418 28.6648 36.8599 28.6074C36.578 28.5499 36.2853 28.577 36.0188 28.6851C35.7524 28.7932 35.5242 28.9776 35.363 29.2148C35.2558 29.3719 35.1808 29.5486 35.1423 29.7346C35.1037 29.9206 35.1025 30.1124 35.1386 30.2989C35.1747 30.4854 35.2475 30.663 35.3527 30.8215C35.4579 30.98 35.5935 31.1163 35.7518 31.2226Z" fill="#66FF63"/>
<path d="M84.5805 84.9339C84.2616 84.7527 83.8856 84.6983 83.528 84.7815C83.1704 84.8648 82.8577 85.0795 82.6527 85.3826C82.4477 85.6857 82.3655 86.0548 82.4226 86.4157C82.4798 86.7767 82.6721 87.1027 82.9609 87.3284C83.2498 87.5098 83.5951 87.5808 83.9326 87.5282H84.059C84.3399 87.4733 84.5981 87.3366 84.8008 87.1354C85.0034 86.9343 85.1415 86.6777 85.1974 86.3984C85.2532 86.119 85.2244 85.8294 85.1146 85.5664C85.0048 85.3034 84.8189 85.0787 84.5805 84.921V84.9339Z" fill="#66FF63"/>
<path d="M77.2532 88.2598C77.0955 88.1402 76.9149 88.0539 76.7225 88.0063C76.53 87.9587 76.3298 87.9507 76.1342 87.9829C75.9385 88.0151 75.7516 88.0867 75.5848 88.1934C75.418 88.3001 75.2749 88.4397 75.1643 88.6034C75.0537 88.7672 74.9779 88.9517 74.9416 89.1456C74.9053 89.3396 74.9092 89.5389 74.9532 89.7313C74.9971 89.9237 75.0802 90.1051 75.1972 90.2644C75.3142 90.4237 75.4627 90.5575 75.6336 90.6576C75.9231 90.8375 76.2682 90.9073 76.6054 90.8542H76.7317C77.0126 90.7992 77.2708 90.6625 77.4735 90.4614C77.6762 90.2602 77.8142 90.0037 77.8701 89.7243C77.926 89.4449 77.8972 89.1554 77.7874 88.8923C77.6775 88.6293 77.4916 88.4046 77.2532 88.2469V88.2598Z" fill="#66FF63"/>
<path d="M84.5805 92.7621C84.2616 92.5809 83.8856 92.5265 83.528 92.6097C83.1704 92.6929 82.8577 92.9077 82.6527 93.2108C82.4477 93.5139 82.3655 93.883 82.4226 94.2439C82.4798 94.6048 82.6721 94.9309 82.9609 95.1566C83.2498 95.338 83.5951 95.409 83.9326 95.3564H84.059C84.3399 95.3015 84.5981 95.1648 84.8008 94.9636C85.0034 94.7625 85.1415 94.5059 85.1974 94.2266C85.2532 93.9472 85.2244 93.6576 85.1146 93.3946C85.0048 93.1315 84.8189 92.9069 84.5805 92.7492V92.7621Z" fill="#66FF63"/>
<path d="M92.2933 90.0807C92.1356 89.9611 91.9549 89.8748 91.7625 89.8272C91.5701 89.7796 91.3699 89.7716 91.1742 89.8038C90.9786 89.836 90.7916 89.9076 90.6248 90.0143C90.458 90.1211 90.3149 90.2606 90.2043 90.4243C90.0937 90.5881 90.0179 90.7726 89.9816 90.9666C89.9453 91.1605 89.9493 91.3598 89.9932 91.5522C90.0372 91.7446 90.1202 91.926 90.2372 92.0853C90.3542 92.2446 90.5027 92.3784 90.6736 92.4785C90.9631 92.6584 91.3083 92.7283 91.6454 92.6751H91.7717C92.0527 92.6202 92.3108 92.4834 92.5135 92.2823C92.7162 92.0811 92.8543 91.8246 92.9101 91.5452C92.966 91.2659 92.9372 90.9763 92.8274 90.7132C92.7176 90.4502 92.5317 90.2256 92.2933 90.0678V90.0807Z" fill="#66FF63"/>
<path d="M98.6616 88.2598C98.3421 88.0727 97.9629 88.014 97.6014 88.0958C97.2399 88.1775 96.9234 88.3935 96.7166 88.6997C96.5099 89.0058 96.4284 89.3789 96.4888 89.7428C96.5493 90.1067 96.7472 90.4339 97.042 90.6575C97.3317 90.837 97.6766 90.9067 98.0138 90.8541H98.1401C98.3245 90.8189 98.5001 90.7477 98.6568 90.6449C98.8136 90.542 98.9484 90.4094 99.0536 90.2547C99.2649 89.9377 99.3423 89.5506 99.2689 89.1772C99.1956 88.8039 98.9774 88.4743 98.6616 88.2598Z" fill="#66FF63"/>
<path d="M104.019 88.0052C103.827 87.8637 103.603 87.7716 103.366 87.737C103.129 87.7025 102.887 87.7265 102.662 87.8071C102.437 87.8876 102.236 88.0222 102.075 88.1989C101.915 88.3755 101.801 88.5888 101.743 88.8198C101.685 89.0508 101.686 89.2924 101.745 89.5232C101.803 89.754 101.918 89.9668 102.079 90.1428C102.24 90.3188 102.442 90.4526 102.668 90.5323C102.893 90.612 103.135 90.6351 103.372 90.5996H103.498C103.778 90.5438 104.035 90.4067 104.237 90.2057C104.439 90.0047 104.577 89.7486 104.633 89.4699C104.689 89.1911 104.661 88.9021 104.553 88.6392C104.444 88.3762 104.26 88.1512 104.023 87.9923L104.019 88.0052Z" fill="#66FF63"/>
<path d="M98.6616 94.8085C98.3421 94.6214 97.9629 94.5628 97.6014 94.6445C97.2399 94.7263 96.9234 94.9423 96.7166 95.2484C96.5099 95.5546 96.4284 95.9277 96.4888 96.2916C96.5493 96.6555 96.7472 96.9827 97.042 97.2063C97.3317 97.3857 97.6766 97.4555 98.0138 97.4029H98.1401C98.3245 97.3676 98.5001 97.2965 98.6568 97.1937C98.8136 97.0908 98.9484 96.9582 99.0536 96.8035C99.2649 96.4864 99.3423 96.0994 99.2689 95.726C99.1956 95.3526 98.9774 95.023 98.6616 94.8085Z" fill="#66FF63"/>
</g>
<defs>
<clipPath id="clip0_603_260">
<rect width="111" height="104" fill="white"/>
</clipPath>
</defs>
</svg>
